<svg width="31" height="30" viewBox="0 0 31 30" fill="none" xmlns="http://www.w3.org/2000/svg">
<circle cx="15.5" cy="15" r="13.5" fill="url(#paint0_radial_1758_1027)" stroke="white" stroke-width="3"/>
<path fill-rule="evenodd" clip-rule="evenodd" d="M17 9.5C17 8.67157 16.3284 8 15.5 8C14.6716 8 14 8.67157 14 9.5V13.5H10C9.17157 13.5 8.5 14.1716 8.5 15C8.5 15.8284 9.17157 16.5 10 16.5H14V20.5C14 21.3284 14.6716 22 15.5 22C16.3284 22 17 21.3284 17 20.5V16.5H21C21.8284 16.5 22.5 15.8284 22.5 15C22.5 14.1716 21.8284 13.5 21 13.5H17V9.5Z" fill="#FFFAF4"/>
<defs>
<radialGradient id="paint0_radial_1758_1027" cx="0" cy="0" r="1" gradientUnits="userSpaceOnUse" gradientTransform="translate(0.166666 -1.66667) rotate(47.663) scale(40.5846 55.3055)">
<stop stop-color="#9EE47D"/>
<stop offset="1" stop-color="#2CAC67"/>
</radialGradient>
</defs>
</svg>
