<svg width="375" height="833" viewBox="0 0 375 833" fill="none" xmlns="http://www.w3.org/2000/svg">
<g clip-path="url(#clip0_3_122)">
<path d="M354.83 86.9982L350.49 85.5351L347.475 94.4804L351.815 95.9435L354.83 86.9982Z" fill="#227C59"/>
<path d="M228.894 34.4978L232.936 36.6505L237.373 28.3181L233.33 26.1655L228.894 34.4978Z" fill="#227C59"/>
<path d="M65.2809 83.7529L62.5016 91.9971L79.4942 97.7257L82.2735 89.4815L65.2809 83.7529Z" fill="#1E66A7"/>
<path d="M15.8555 93.3856L14.3924 97.7257L23.3377 100.741L24.8008 96.4013L15.8555 93.3856Z" fill="#F76F00"/>
<path d="M131.021 26.9989L129.558 31.339L138.504 34.3546L139.967 30.0146L131.021 26.9989Z" fill="#F76F00"/>
<path d="M57.0178 41.8188L52.6778 40.3557L49.6622 49.301L54.0022 50.7641L57.0178 41.8188Z" fill="#227C59"/>
<path d="M55.3153 147.328L52.1437 144.024L45.3334 150.561L48.505 153.865L55.3153 147.328Z" fill="#227C59"/>
<path d="M303.96 48.3924L299.32 40.3557L282.779 49.9057L287.419 57.9424L303.96 48.3924Z" fill="#1E66A7"/>
<path d="M323.22 129.012L329.412 122.1L315.186 109.356L308.994 116.268L323.22 129.012Z" fill="#F89C00"/>
<path d="M39 698.928C18 691.636 12.5 693.88 -29 698.928V833H398.5V692.197H375C368.5 692.197 355.5 692.197 347 687.148C338.5 682.099 324 692.758 311 692.197C298 691.636 294 687.148 280.5 687.148C267 687.148 252 686.026 238.5 687.148C225 688.27 155.5 714.074 140 714.074C124.5 714.074 113.5 711.831 109.5 709.587C105.5 707.343 101 703.416 91 698.928C81 694.441 60 706.221 39 698.928Z" fill="url(#paint0_linear_3_122)"/>
<path d="M12.1999 697.044L74.0371 724.324L62.0146 739.204L33.1832 734.396L12.1999 697.044Z" fill="#F89C00"/>
<path d="M74.0371 724.324L107.815 709.424L85.7935 733.717L62.0146 739.204L74.0371 724.324Z" fill="#F76F00"/>
<path d="M12.1999 697.044L55.7077 695.521L107.815 709.424L74.0371 724.324L12.1999 697.044Z" fill="#870300"/>
<g style="mix-blend-mode:overlay" opacity="0.5">
<path d="M74.0371 724.324L33.1832 734.396L62.0146 739.204L85.7935 733.717L74.0371 724.324Z" fill="black"/>
</g>
<path d="M37.5405 708.22L69.0141 671.748L67.4155 721.406L37.5405 708.22Z" fill="#F89C00"/>
<path d="M69.0141 671.748L91.6458 716.548L74.0371 724.324L67.4155 721.406L69.0141 671.748Z" fill="#F76F00"/>
<g style="mix-blend-mode:overlay" opacity="0.5">
<path d="M37.5405 708.22L67.6837 713.233L79.0868 691.676L91.6458 716.548L74.0371 724.324L37.5405 708.22Z" fill="black"/>
</g>
<path d="M25.007 727.695C-4.02456 721.205 -11.6281 723.202 -69 727.695V847H522V721.704H489.512C480.526 721.704 462.554 721.704 450.804 717.212C439.053 712.719 419.007 722.203 401.035 721.704C383.063 721.205 377.533 717.212 358.87 717.212C340.207 717.212 319.47 716.213 300.807 717.212C282.144 718.21 186.063 741.173 164.635 741.173C143.207 741.173 128 739.176 122.47 737.179C116.94 735.182 110.719 731.688 96.8947 727.695C83.0702 723.701 54.0386 734.184 25.007 727.695Z" fill="url(#paint1_linear_3_122)"/>
<path d="M-91.993 762.695C-121.025 756.205 -128.628 758.202 -186 762.695V882H405V756.704H372.512C363.526 756.704 345.554 756.704 333.804 752.212C322.053 747.719 302.007 757.203 284.035 756.704C266.063 756.205 260.533 752.212 241.87 752.212C223.207 752.212 202.47 751.213 183.807 752.212C165.144 753.21 69.0632 776.173 47.6351 776.173C26.207 776.173 11 774.176 5.47018 772.179C-0.0596466 770.182 -6.2807 766.688 -20.1053 762.695C-33.9298 758.701 -62.9614 769.184 -91.993 762.695Z" fill="url(#paint2_linear_3_122)"/>
</g>
<defs>
<linearGradient id="paint0_linear_3_122" x1="220" y1="635.539" x2="27.3799" y2="844.304" gradientUnits="userSpaceOnUse">
<stop stop-color="#FFD4A2"/>
<stop offset="1" stop-color="#FFD4A2" stop-opacity="0"/>
</linearGradient>
<linearGradient id="paint1_linear_3_122" x1="90.5193" y1="688.159" x2="302.803" y2="815.032" gradientUnits="userSpaceOnUse">
<stop stop-color="#FFD4A2"/>
<stop offset="1" stop-color="#FFD4A2" stop-opacity="0"/>
</linearGradient>
<linearGradient id="paint2_linear_3_122" x1="109.5" y1="751" x2="318" y2="827" gradientUnits="userSpaceOnUse">
<stop stop-color="#FFC582"/>
<stop offset="1" stop-color="#FFD4A2" stop-opacity="0"/>
</linearGradient>
<clipPath id="clip0_3_122">
<rect width="375" height="833" fill="white"/>
</clipPath>
</defs>
</svg>
