<svg width="52" height="51" viewBox="0 0 52 51" fill="none" xmlns="http://www.w3.org/2000/svg">
<circle cx="23.4105" cy="21.5771" r="19.5" transform="rotate(-135 23.4105 21.5771)" fill="url(#paint0_linear_2024_10323)"/>
<path d="M23.4105 12.6396L23.4105 20.9041C23.4105 21.335 23.2393 21.7484 22.9346 22.0531L16.9105 28.0771" stroke="url(#paint1_linear_2024_10323)" stroke-width="4.875" stroke-linecap="round"/>
<path fill-rule="evenodd" clip-rule="evenodd" d="M41.8749 43.042C42.9795 43.042 43.8749 42.1466 43.8749 41.042L43.8751 26.6572C43.8751 24.8753 41.7208 23.983 40.4608 25.2429L37.8647 27.8391L32.2078 22.1822C31.4268 21.4012 30.1604 21.4012 29.3794 22.1822L23.0154 28.5462C22.2344 29.3272 22.2344 30.5936 23.0154 31.3746L28.6723 37.0315L26.0761 39.6277C24.8161 40.8876 25.7085 43.0419 27.4903 43.0419L41.8749 43.042Z" fill="url(#paint2_linear_2024_10323)"/>
<defs>
<linearGradient id="paint0_linear_2024_10323" x1="23.4091" y1="-3.92524" x2="43.723" y2="28.2607" gradientUnits="userSpaceOnUse">
<stop stop-color="#B0E7FF"/>
<stop offset="1" stop-color="#3CADFF"/>
</linearGradient>
<linearGradient id="paint1_linear_2024_10323" x1="24.8878" y1="24.9896" x2="13.2672" y2="19.9324" gradientUnits="userSpaceOnUse">
<stop stop-color="#1E78FF"/>
<stop offset="1" stop-color="#002EB5"/>
</linearGradient>
<linearGradient id="paint2_linear_2024_10323" x1="23.3276" y1="28.234" x2="48.3895" y2="39.783" gradientUnits="userSpaceOnUse">
<stop stop-color="#FF7D7D"/>
<stop offset="1" stop-color="#FF2F2F"/>
</linearGradient>
</defs>
</svg>
