<svg width="48" height="47" viewBox="0 0 48 47" fill="none" xmlns="http://www.w3.org/2000/svg">
<circle cx="23.0771" cy="21.5771" r="19.5" transform="rotate(-135 23.0771 21.5771)" fill="url(#paint0_linear_2024_10262)"/>
<path d="M23.0771 12.6396L23.0771 20.9041C23.0771 21.335 22.9059 21.7484 22.6012 22.0531L16.5771 28.0771" stroke="url(#paint1_linear_2024_10262)" stroke-width="4.875" stroke-linecap="round"/>
<path fill-rule="evenodd" clip-rule="evenodd" d="M23.3996 20.8994C22.2951 20.8994 21.3996 21.7948 21.3996 22.8994L21.3995 37.2842C21.3995 39.0661 23.5538 39.9584 24.8137 38.6985L27.4099 36.1023L33.0667 41.7592C33.8478 42.5402 35.1141 42.5402 35.8951 41.7592L42.2591 35.3952C43.0402 34.6142 43.0402 33.3479 42.2591 32.5668L36.6022 26.9099L39.1985 24.3137C40.4584 23.0538 39.5661 20.8995 37.7843 20.8995L23.3996 20.8994Z" fill="url(#paint2_linear_2024_10262)"/>
<defs>
<linearGradient id="paint0_linear_2024_10262" x1="23.0758" y1="-3.92524" x2="43.3896" y2="28.2607" gradientUnits="userSpaceOnUse">
<stop stop-color="#B0E7FF"/>
<stop offset="1" stop-color="#3CADFF"/>
</linearGradient>
<linearGradient id="paint1_linear_2024_10262" x1="24.5544" y1="24.9896" x2="12.9338" y2="19.9324" gradientUnits="userSpaceOnUse">
<stop stop-color="#1E78FF"/>
<stop offset="1" stop-color="#002EB5"/>
</linearGradient>
<linearGradient id="paint2_linear_2024_10262" x1="27.3503" y1="20.3932" x2="36.7117" y2="38.0145" gradientUnits="userSpaceOnUse">
<stop stop-color="#FFCD4D"/>
<stop offset="1" stop-color="#FA8700"/>
</linearGradient>
</defs>
</svg>
