<svg width="218" height="106" viewBox="0 0 218 106" fill="none" xmlns="http://www.w3.org/2000/svg">
<g filter="url(#filter0_d_1056_14411)">
<path d="M76.1485 45.5283L69.6444 36.346C76.5857 32.1375 79.5918 26.7812 78.772 20.3864C78.5533 18.7467 77.8975 17.435 76.8043 16.5058C75.7659 15.6313 74.3995 15.1941 72.7598 15.1941C70.9561 15.1941 69.5351 15.7406 68.3873 16.7791C67.2941 17.8176 66.7476 19.2386 66.7476 20.933C66.7476 22.682 67.3488 24.0484 68.4966 24.9775C66.4743 29.4047 61.7192 32.0828 54.286 33.0667V24.7589H57.8386V16.2872H40.5672V24.7589H43.8466V45.5283H40.6219V54H57.8386V45.5283H54.286V41.8117C56.5269 41.3744 58.7678 40.8278 60.954 40.172L70.027 54H80.0837V45.5283H76.1485ZM86.2812 23.9391C87.593 25.0322 89.2873 25.5787 91.4189 25.5787C93.6598 25.5787 95.4088 25.0322 96.7206 23.9391C98.087 22.7913 98.7428 21.1516 98.7428 19.0747C98.7428 17.107 98.0323 15.5767 96.6659 14.4835C95.3542 13.4451 93.6052 12.9532 91.4189 12.9532C89.2327 12.9532 87.4837 13.4997 86.1173 14.5928C84.7508 15.686 84.095 17.1617 84.095 19.0747C84.095 21.0969 84.8055 22.7366 86.2812 23.9391ZM81.9087 26.8358V35.3076H86.1173V54H97.0485V26.8358H81.9087ZM101.842 16.2872V24.7589H105.121V45.5283H101.897V54H121.682C127.968 54 132.941 52.087 136.658 48.3157C140.211 44.7631 141.96 40.2813 141.96 34.761C141.96 29.6233 140.211 25.3055 136.658 21.8621C132.887 18.1455 127.913 16.2872 121.682 16.2872H101.842ZM115.506 45.4736V24.8136H121.682C124.47 24.8136 126.765 25.6881 128.624 27.3824C130.646 29.2954 131.684 31.8642 131.684 35.1436C131.684 38.5323 130.646 41.1558 128.624 43.0141C126.82 44.6538 124.524 45.4736 121.682 45.4736H115.506ZM159.072 29.9512C156.448 29.2954 155.137 28.3662 155.137 27.2184C155.137 24.9775 157.487 23.8297 162.242 23.8297C164.21 23.8297 166.177 24.2123 168.199 24.9775C167.598 26.3439 167.817 27.8743 168.746 29.4593C169.784 31.263 171.369 32.1375 173.501 32.1375C176.89 32.1375 178.803 30.4978 179.24 27.2731C179.677 23.8844 178.365 21.0423 175.359 18.7467C172.189 16.3965 167.817 15.1941 162.297 15.1941C156.558 15.1941 152.24 16.3418 149.234 18.5827C146.556 20.6597 145.189 23.4472 145.189 26.9998C145.189 30.4432 146.501 33.1213 149.124 35.0889C151.092 36.5647 153.989 37.7671 157.815 38.6416C158.799 38.8602 160.329 39.1335 162.406 39.5161C164.319 39.8987 165.631 40.172 166.45 40.3359C169.074 40.9918 170.386 41.921 170.386 43.1234C170.386 44.1619 169.675 44.9271 168.254 45.3643C166.942 45.8016 164.701 46.0202 161.531 46.0202C158.799 46.0202 156.831 45.7469 155.574 45.1457C156.284 43.4513 156.12 41.757 155.082 40.0627C153.989 38.259 152.349 37.3298 150.108 37.3298C148.632 37.3298 147.321 37.7671 146.282 38.6416C145.134 39.6254 144.533 40.8825 144.369 42.4675C143.987 45.9655 145.189 48.8077 147.977 50.9392C150.983 53.3441 155.519 54.5466 161.531 54.5466C167.653 54.5466 172.353 53.4534 175.687 51.2125C178.803 49.0809 180.388 46.2388 180.388 42.5768C180.388 39.4068 179.076 36.8926 176.453 35.0343C174.485 33.6679 171.588 32.5201 167.762 31.7002C166.833 31.4816 165.248 31.2083 163.116 30.8257C161.258 30.4432 159.892 30.1699 159.072 29.9512Z" fill="white"/>
<path d="M39.7134 62.6189C36.3756 59.5229 32.0219 57.975 26.604 57.975C21.1378 57.975 16.7841 59.5229 13.4463 62.6189C10.1085 65.6664 8.4638 69.7298 8.4638 74.8091C8.4638 80.0819 10.1085 84.2904 13.4463 87.4831C16.7841 90.7241 21.1378 92.3205 26.604 92.3205C32.0219 92.3205 36.3756 90.7241 39.7134 87.4831C43.0512 84.2904 44.6959 80.0819 44.6959 74.8091C44.6959 69.7298 43.0512 65.6664 39.7134 62.6189ZM33.1345 81.8717C31.4898 83.5648 29.313 84.3871 26.604 84.3871C23.8951 84.3871 21.7183 83.5648 20.0735 81.8717C18.3805 80.1786 17.5581 77.905 17.5581 75.1477C17.5581 72.3904 18.3805 70.1168 20.0735 68.4238C21.7183 66.7307 23.8951 65.9083 26.604 65.9083C29.313 65.9083 31.4898 66.7307 33.1345 68.4238C34.7792 70.1168 35.6016 72.3904 35.6016 75.1477C35.6016 77.905 34.7792 80.1786 33.1345 81.8717ZM84.2306 58.4587H69.4282V65.9567H72.6692V77.5664L55.7867 58.4587H46.8859V65.9567H49.7884V84.3388H46.9343V91.8367H61.3014V84.3388H58.3989V73.6965L75.233 91.8367H81.3282V65.9567H84.2306V58.4587ZM110.501 79.0176V84.4355H99.1819V65.9567H103.729V58.4587H86.9917V65.9567H90.1844V84.3388H86.9917V91.8367H118.048V79.0176H110.501ZM122.634 65.2311C123.795 66.1985 125.294 66.6823 127.181 66.6823C129.164 66.6823 130.712 66.1985 131.873 65.2311C133.083 64.2152 133.663 62.764 133.663 60.9258C133.663 59.1843 133.034 57.8299 131.825 56.8624C130.664 55.9433 129.116 55.5079 127.181 55.5079C125.246 55.5079 123.698 55.9917 122.489 56.9591C121.279 57.9266 120.699 59.2327 120.699 60.9258C120.699 62.7156 121.328 64.1668 122.634 65.2311ZM118.764 67.7949V75.2928H122.489V91.8367H132.163V67.7949H118.764ZM173.751 58.4587H158.948V65.9567H162.189V77.5664L145.307 58.4587H136.406V65.9567H139.308V84.3388H136.454V91.8367H150.821V84.3388H147.919V73.6965L164.753 91.8367H170.848V65.9567H173.751V58.4587ZM200.08 81.1461C198.774 83.3229 196.597 84.3871 193.501 84.3871C191.131 84.3871 189.148 83.7099 187.551 82.4038C185.955 81.0977 184.987 79.3079 184.649 77.0343C186.729 78.1469 189.099 78.8241 191.76 79.1144C194.42 79.4046 196.984 79.2111 199.403 78.5823C201.967 77.9534 203.998 76.8408 205.498 75.3412C207.191 73.6481 208.013 71.5681 208.013 69.101C208.013 65.7632 206.707 63.0542 204.144 60.9742C201.628 58.9908 198.387 57.975 194.469 57.975C188.664 57.975 184.02 59.5713 180.537 62.764C177.102 65.9083 175.409 70.1168 175.409 75.3412C175.409 80.3721 177.102 84.4839 180.489 87.6282C183.826 90.7725 188.18 92.3205 193.501 92.3205C197.565 92.3205 201.096 91.2079 204.047 88.9827C206.804 86.9026 208.497 84.2904 209.029 81.1461H200.08ZM185.568 70.649C187.261 67.4079 190.115 65.7632 194.033 65.7632C197.274 65.7632 198.919 66.7307 198.919 68.714C198.919 70.6973 197.42 71.8099 194.42 72.0518C191.76 72.2937 188.809 71.8099 185.568 70.649Z" fill="white"/>
</g>
<defs>
<filter id="filter0_d_1056_14411" x="0.463806" y="-4" width="216.565" height="122" filterUnits="userSpaceOnUse" color-interpolation-filters="sRGB">
<feFlood flood-opacity="0" result="BackgroundImageFix"/>
<feColorMatrix in="SourceAlpha" type="matrix" values="0 0 0 0 0 0 0 0 0 0 0 0 0 0 0 0 0 0 127 0" result="hardAlpha"/>
<feOffset dy="4"/>
<feGaussianBlur stdDeviation="4"/>
<feComposite in2="hardAlpha" operator="out"/>
<feColorMatrix type="matrix" values="0 0 0 0 0 0 0 0 0 0 0 0 0 0 0 0 0 0 0.13 0"/>
<feBlend mode="normal" in2="BackgroundImageFix" result="effect1_dropShadow_1056_14411"/>
<feBlend mode="normal" in="SourceGraphic" in2="effect1_dropShadow_1056_14411" result="shape"/>
</filter>
</defs>
</svg>
