<svg width="52" height="52" viewBox="0 0 52 52" fill="none" xmlns="http://www.w3.org/2000/svg">
<rect width="52" height="52" rx="20" fill="#FFF4D8"/>
<rect x="13" y="11.0713" width="24.4286" height="33.9286" rx="5.42857" fill="url(#paint0_linear_12_3545)"/>
<path d="M18.4286 12.7783C18.4286 11.8356 19.1927 11.0714 20.1354 11.0714C20.6628 11.0714 21.0639 10.5979 20.9772 10.0777L20.6905 8.35714C20.5721 7.64672 21.1199 7 21.8401 7H28.5884C29.3086 7 29.8565 7.64671 29.7381 8.35714L29.4513 10.0777C29.3646 10.5979 29.7658 11.0714 30.2931 11.0714C31.2358 11.0714 32 11.8356 32 12.7783V12.881C32 13.3806 31.5949 13.7857 31.0952 13.7857H19.3333C18.8336 13.7857 18.4286 13.3806 18.4286 12.881V12.7783Z" fill="url(#paint1_linear_12_3545)"/>
<rect x="17.0714" y="17.8569" width="16.2857" height="23.0714" rx="2.71429" fill="url(#paint2_linear_12_3545)"/>
<rect x="25.2143" y="20.5713" width="17.6429" height="24.4286" rx="4.07143" fill="url(#paint3_linear_12_3545)"/>
<path fill-rule="evenodd" clip-rule="evenodd" d="M29.2857 27.3571C29.2857 26.6076 29.8933 26 30.6429 26H37.4286C38.1781 26 38.7857 26.6076 38.7857 27.3571C38.7857 28.1067 38.1781 28.7143 37.4286 28.7143H30.6429C29.8933 28.7143 29.2857 28.1067 29.2857 27.3571ZM29.2857 32.7858C29.2857 32.0363 29.8933 31.4286 30.6428 31.4286H37.4286C38.1781 31.4286 38.7857 32.0363 38.7857 32.7858C38.7857 33.5353 38.1781 34.1429 37.4286 34.1429H30.6428C29.8933 34.1429 29.2857 33.5353 29.2857 32.7858ZM30.6428 36.857C29.8933 36.857 29.2857 37.4646 29.2857 38.2142C29.2857 38.9637 29.8933 39.5713 30.6428 39.5713H37.4286C38.1781 39.5713 38.7857 38.9637 38.7857 38.2142C38.7857 37.4646 38.1781 36.857 37.4286 36.857H30.6428Z" fill="url(#paint4_linear_12_3545)"/>
<defs>
<linearGradient id="paint0_linear_12_3545" x1="29.7946" y1="15.3124" x2="19.1936" y2="40.0625" gradientUnits="userSpaceOnUse">
<stop stop-color="#FFCD4D"/>
<stop offset="1" stop-color="#FA8700"/>
</linearGradient>
<linearGradient id="paint1_linear_12_3545" x1="27.7589" y1="7.84821" x2="26.8766" y2="13.5703" gradientUnits="userSpaceOnUse">
<stop stop-color="#FFCD4D"/>
<stop offset="1" stop-color="#FA8700"/>
</linearGradient>
<linearGradient id="paint2_linear_12_3545" x1="32" y1="40.9284" x2="11.8874" y2="30.6223" gradientUnits="userSpaceOnUse">
<stop stop-color="#FFC38B"/>
<stop offset="1" stop-color="#FFF9C1"/>
</linearGradient>
<linearGradient id="paint3_linear_12_3545" x1="41.3869" y1="44.9999" x2="19.8084" y2="33.6867" gradientUnits="userSpaceOnUse">
<stop stop-color="#FFC38B"/>
<stop offset="1" stop-color="#FFF9C1"/>
</linearGradient>
<linearGradient id="paint4_linear_12_3545" x1="37.0806" y1="27.6964" x2="27.0051" y2="33.6977" gradientUnits="userSpaceOnUse">
<stop stop-color="#FFAD4D"/>
<stop offset="1" stop-color="#FF891D"/>
</linearGradient>
</defs>
</svg>
