<svg width="19" height="16" viewBox="0 0 19 16" fill="none" xmlns="http://www.w3.org/2000/svg">
<path fill-rule="evenodd" clip-rule="evenodd" d="M4.23759 0.68908C3.73796 0.212683 2.94673 0.231522 2.47033 0.731158C1.99393 1.23079 2.01277 2.02203 2.51241 2.49842L15.9499 15.3109C16.4495 15.7873 17.2408 15.7685 17.7172 15.2688C18.1936 14.7692 18.1747 13.978 17.6751 13.5016L16.203 12.098C17.2051 10.9045 17.75 9.5753 17.75 8.46875C17.75 5.71875 14.3846 1.59375 9 1.59375C7.81523 1.59375 6.72821 1.79346 5.75329 2.13428L4.23759 0.68908ZM9.12177 5.34608L12.1135 8.19866C11.98 6.63911 10.7011 5.40659 9.12177 5.34608ZM5.875 8.46875C5.875 8.35649 5.88092 8.24562 5.89246 8.13642L2.0946 4.50368C0.90324 5.7787 0.25 7.25717 0.25 8.46875C0.25 11.2188 3.61538 15.3438 9 15.3438C10.3667 15.3438 11.6034 15.078 12.6879 14.6364L9.47021 11.5586C9.31684 11.5818 9.15982 11.5938 9 11.5938C7.27411 11.5938 5.875 10.1946 5.875 8.46875Z" fill="#BDBDBD"/>
</svg>
