<svg width="20" height="20" viewBox="0 0 20 20" fill="none" xmlns="http://www.w3.org/2000/svg">
<g id="Female">
<rect x="1.25" y="1.25" width="17.5" height="17.5" rx="8.75" fill="#FF5959"/>
<path id="Union" fill-rule="evenodd" clip-rule="evenodd" d="M7.82143 8.57143C7.82143 7.38796 8.78082 6.42857 9.96428 6.42857C11.1477 6.42857 12.1071 7.38796 12.1071 8.57143C12.1071 9.75316 11.1506 10.7115 9.96948 10.7143C9.96775 10.7143 9.96602 10.7143 9.96429 10.7143C9.96255 10.7143 9.96082 10.7143 9.95909 10.7143C8.77801 10.7115 7.82143 9.75316 7.82143 8.57143ZM9.25 12.0714C7.61983 11.7405 6.39285 10.2993 6.39285 8.57143C6.39285 6.59898 7.99184 5 9.96428 5C11.9367 5 13.5357 6.59898 13.5357 8.57143C13.5357 10.2993 12.3087 11.7405 10.6786 12.0714V12.5H11.3929C11.7873 12.5 12.1071 12.8198 12.1071 13.2143C12.1071 13.6088 11.7873 13.9285 11.3929 13.9285H10.6786V14.2857C10.6786 14.6802 10.3588 15 9.96429 15C9.5698 15 9.25 14.6802 9.25 14.2857V13.9285H8.53572C8.14123 13.9285 7.82143 13.6088 7.82143 13.2143C7.82143 12.8198 8.14123 12.5 8.53572 12.5H9.25V12.0714Z" fill="white"/>
<rect x="1.25" y="1.25" width="17.5" height="17.5" rx="8.75" stroke="white" stroke-width="1.5"/>
</g>
</svg>
