<svg width="121" height="120" viewBox="0 0 121 120" fill="none" xmlns="http://www.w3.org/2000/svg">
<g clip-path="url(#clip0_2_697)">
<rect x="0.5" width="120" height="120" rx="60" fill="#FFDD63"/>
<g clip-path="url(#clip1_2_697)">
<path d="M45.4636 82.2595L44.8686 81.9178L44.3506 82.4248L43.7776 82.6782L43.0062 82.1713L42.4992 82.7003L41.7609 82.3587L41.1438 82.4578L40.6699 83.086L40.196 83.626L39.7001 84.0888L39.072 84.1439L38.5871 84.6288L37.6614 83.8904L37.3198 84.739L36.7908 85.0916L36.1737 85.1908L35.6668 85.5986L34.8403 85.2459L34.3554 85.6757L33.7603 85.863L33.2313 86.1936L32.4048 85.9402L31.8428 86.2047L31.7657 87.3838L31.3579 87.9018L30.7849 88.1332L30.0906 88.1662L29.782 88.8385L29.0988 88.8936L28.2723 88.7723L27.9637 89.4225L27.589 89.9625L26.7846 89.8964L25.9801 89.8854L26.2556 91.2408L25.5062 91.2959L24.9773 91.6266L24.7459 92.2988L23.5667 91.9241L23.2692 92.5302L22.9386 93.0922L22.9826 93.9959L22.1672 94.084L22.057 94.8114L21.2966 94.9767L20.9219 95.4836L20.8227 96.1999L20.5141 96.7289L19.9631 97.1035L19.2138 97.357L19.0595 97.9962L19.5223 98.999L18.244 98.988L18.6077 99.8916L18.255 100.399L17.7922 100.872L17.0979 101.247L17.8803 102.239L17.2742 102.647L16.7563 103.132L16.613 103.738L16.029 104.223L16.3265 104.939L16.3045 105.567L16.3375 106.195L16.029 106.779L16.7232 107.418L16.0069 108.035L15.5 108.708L16.7563 109.16L15.7204 110.03L15.9518 110.658L17.0759 110.89L17.1971 111.496L17.3293 112.135L17.3844 112.873L18.0456 113.149L18.4534 113.623L19.0044 113.942L19.2028 114.747L20.3488 114.097L20.3709 115.331L20.9219 115.683L21.4949 116.003L22.4867 115.011L22.9826 115.408L23.5667 115.584L24.0516 116.267L24.6908 116.212L25.3409 115.981L25.936 116.091L26.5642 115.882L27.1703 116.818L27.7984 116.686L28.4156 116.499L28.9886 115.926L29.5727 115.661L30.3441 116.697L30.9392 116.444L31.391 115.529L32.1734 116.157L32.5371 115.088L33.3856 115.827L33.8044 115.055L34.3554 114.802L34.7521 114.13L35.6007 114.592L36.4161 114.879L36.6035 113.821L37.3418 113.898L37.5953 113.105L38.1463 112.851L38.4989 112.311L39.1601 112.179L39.5679 111.716L39.8544 111.132L40.9013 111.353L41.4854 111.044L41.7388 110.416L42.0033 109.821L41.816 108.873L42.907 108.961L43.447 108.586L43.469 107.837L43.5902 107.176L44.6592 107.121L43.9318 105.953L45.2322 105.997L44.6812 104.983L45.662 104.807L45.133 103.848L46.4554 103.804L46.1248 102.966L45.8824 102.195L47.0505 101.996L46.8962 101.269L47.0505 100.674L46.9624 99.9908L46.9183 99.3406L48.0644 99.0431L47.7779 98.3157L47.9542 97.7207L48.1746 97.1366L48.6154 96.5966L47.8219 95.8142L48.946 95.3844L49.0121 94.7673L48.8909 94.1171L48.2958 93.4228L49.0562 92.8718L48.4391 92.2106L48.3178 91.6045L48.5933 90.9984L49.0892 90.3703L48.3068 89.7972L49.2545 89.1029L49.0341 88.4858L48.3509 87.9679L48.4611 87.3177L48.5382 86.6675L47.5905 86.3038L47.7889 85.5986L47.4583 85.0806L47.7007 84.2761L46.6428 84.188L46.3232 83.7141L46.6318 82.7003L46.3232 82.0942L45.4636 82.2595Z" fill="#DC0B00"/>
<path d="M37.5071 114.207L36.5704 113.777L36.0415 114.097L35.4794 114.361L35.1048 115.088L34.157 114.35L33.9697 115.683L33.022 114.769L32.4599 115.011L31.9199 115.342L31.4791 116.256L30.7188 115.584L30.1788 116.179L29.6057 116.598L28.9225 116.19L28.3384 116.863L27.6992 116.752L27.0601 115.661L26.4209 116.719L25.8258 115.981L25.1867 116.267L24.6246 115.783L23.9965 115.827L23.2361 116.367L22.7953 115.518L22.3325 114.989L21.7815 114.758L20.8337 115.419L20.2827 115.088L19.5664 115.033L19.346 114.185L18.773 113.898L18.211 113.568L17.7922 113.072L17.715 112.333L17.5057 111.749L17.0869 111.297L17.153 110.614L16.6461 110.162L16.3706 109.611L15.7975 109.071L16.3706 108.366L15.8416 107.771L16.4257 107.154L15.7865 106.482L16.5249 105.942L16.0841 105.247L16.3926 104.663L16.3045 103.991V103.33L16.3486 102.669L17.3734 102.371L17.4175 101.897L18.0236 102.283L17.142 102.999L17.3183 103.616L17.131 104.311L18.3873 104.619L18.0456 105.369L18.7069 105.754L19.0044 106.25L18.8171 107.077L19.6215 107.22L20.0403 107.606L20.0733 108.542L20.437 109.226L21.4729 108.498L21.7594 109.6L22.5088 109.204L23.0818 109.788L23.732 109.589L24.3161 108.708L24.9442 109.082L25.5063 108.697L26.1675 108.961L26.6634 108.41L27.3356 108.531L27.9417 108.41L28.3274 107.694L29.0547 107.892L29.6939 107.837L30.3882 107.859L30.6747 107.055L31.3359 106.989L32.1183 107.088L32.2616 106.162L32.7465 105.798H33.5179L33.7603 105.115L34.157 104.63L35.0607 104.718L35.259 104.024L36.0635 103.947L36.5594 103.55L36.6365 102.768L36.7578 102.063L36.9231 101.412L37.408 101.027L37.5402 100.365L38.7193 100.465L38.521 99.5721L38.7304 98.988L39.1822 98.5472L39.3475 97.9301L40.2181 97.7317L40.3503 97.1035L40.725 96.5966L40.9344 96.0126L41.7499 95.726L42.0364 95.175L41.3972 94.1942L41.4082 93.533L41.7278 93.0041L42.2458 92.5633L42.0915 91.847L42.6205 91.3841L43.3478 90.9984L43.2266 90.2931L43.1935 89.6429L43.8878 89.2242L44.549 88.7724L43.5461 87.8246L44.1302 87.3618L44.3837 86.7998L44.1963 86.1165L45.3865 85.7859L45.3094 85.1247L45.2873 84.4855L44.7694 83.7472L45.4196 83.2513L45.133 82.5791L45.5959 82.1934L45.8714 82.557L46.5656 82.7554L47.0065 83.2072L47.1607 83.8684L47.0395 84.6288L47.4913 85.0696L48.5713 85.312L47.7228 86.2598L48.6044 86.6455L48.6705 87.2736L48.5823 87.9238L48.1856 88.596L49.3537 89.0809L48.979 89.7421L48.6815 90.3813L48.7366 90.9874L48.2958 91.5935L48.7256 92.2216L48.7807 92.8388L48.8578 93.4669L48.5382 94.051L49.1664 94.7673L48.3619 95.2632L47.7007 95.7701L48.7366 96.6076L47.4362 96.9493L47.3371 97.5443L48.1085 98.3819L47.7889 98.9439L47.4032 99.4729L46.8522 99.9357L46.9514 100.619L46.6869 101.181L46.5767 101.787L45.8493 102.151L46.6759 103.187L45.4416 103.308L45.1 103.815L44.7584 104.322L45.5849 105.457L45.0669 105.887L44.7253 106.405L43.9098 106.636L43.7004 107.231L43.6123 107.914L43.2045 108.388L43.0172 109.027L41.9041 108.939L41.6176 109.49L41.3311 110.041L41.298 110.857L40.9895 111.441L39.7663 111.044L39.4136 111.551L39.4687 112.565L38.4989 112.311L38.532 113.435L37.5071 112.984V114.207Z" fill="#870300"/>
<path d="M85.169 71.7463L85.6539 71.041H86.2821L86.9322 72.1541L87.5384 71.3055L88.1555 71.8124L88.7616 72.1541L89.4118 71.2504L90.0509 70.9088L90.646 71.3827L91.2411 71.7573L91.9354 70.9859L92.5194 71.4267L93.0374 72.4296L93.6435 72.4957L94.2937 72.2532L95.01 71.6361L95.6051 71.8786L96.1781 72.2532L96.7732 72.3965L97.3683 72.6059L97.9193 72.9806L98.6576 72.5067L99.3299 72.3635L99.958 72.4185L100.509 72.8043L100.906 73.6859L101.413 74.1156L102.14 73.8512L102.79 73.8622L103.517 73.6638L104.091 73.9063L104.465 74.6777L105.115 74.7107L105.931 74.4132L106.317 75.0854L106.934 75.2507L107.386 75.7356L107.683 76.518L108.289 76.6723L108.939 76.7825L109.799 76.5511L110.394 76.7935L110.515 77.7523L111.408 77.5539L111.672 78.2702L112.334 78.4355L112.433 79.3061L113.226 79.3281L113.502 79.9563L114.174 80.1436L113.976 81.2456L115.21 80.904L115.607 81.3889L115.474 82.3587L116.08 82.6452L116.918 82.7664L116.852 83.615L117.722 83.7472L118.042 84.2982L117.656 85.29L118.185 85.6757L118.648 86.1275L119.034 86.6235L119.728 87.0092L118.957 88.001L118.99 88.6071L119.893 88.9707L120.301 89.5217L119.431 90.2931L119.552 90.8662L120.753 91.4392L119.717 92.0233L119.497 92.5853L120.004 93.3016L119.926 93.9408L120.004 94.6681L119.001 94.8775L118.725 95.4175L118.395 95.9134L118.406 96.7289L117.238 96.4534L117.601 97.7648L116.4 97.2468L115.97 97.6546L115.573 98.1395L115.441 99.1423L114.527 98.7125L114.185 99.4288L113.733 99.9798L112.984 99.7594L112.587 100.553L111.937 100.597L111.066 99.6933L110.703 100.883L109.953 100.299L109.413 100.751L108.741 100.421L108.157 100.63L107.584 101.368L106.934 100.685L106.317 100.321L105.71 100.288L105.071 101.247L104.443 101.159L103.793 101.401L103.242 100.74L102.614 100.773L101.975 100.795L101.369 100.619L100.862 100.09L100.322 99.7704L99.6935 99.7263L99.2527 99.1864L98.5805 99.2525L97.9634 99.1092L97.203 99.2194L96.9826 98.3598L96.1891 98.4701L95.9908 97.6546L95.0981 97.8639L94.9879 96.9713L94.1614 97.0264L93.7978 96.4864L93.1586 96.2771L92.5745 96.0015L91.9905 95.693L92.1558 94.6351L91.726 94.2053L90.7672 94.2494L91.0648 93.1584L90.6019 92.7506L90.4697 92.0674L89.1914 92.2988L89.2575 91.4613L88.5081 91.2519L88.1114 90.756L88.2547 89.9185L87.4612 89.6981L87.0976 89.1801L87.3951 88.2875L87.4281 87.5602L86.1829 87.5491L86.7449 86.5573L85.9845 86.2488L86.1829 85.4774L85.7311 85.0145L84.6841 84.7831L84.8605 84.0447L84.3646 83.5599L84.5188 82.8436L83.9238 82.3807L84.034 81.6975L83.9348 81.0803L83.2626 80.5844L83.5821 79.8792L83.6813 79.24L83.9127 78.5898L83.2736 78.0278L83.505 77.3996L83.9899 76.7825L83.3177 76.1433L83.3507 75.5152L83.8907 74.9752L83.6372 74.292L83.6923 73.6528L84.5409 73.3112L84.4417 72.6059L85.1801 72.3414L85.169 71.7463Z" fill="#DC0B00"/>
<path d="M100.74 100.553L101.413 100.465L102.118 100.112L102.636 100.74L103.264 100.795L103.848 101.203L104.465 101.412L105.104 101.368L105.755 100.586L106.372 100.85L106.978 100.233L107.617 100.828L108.311 101.445L108.862 100.696L109.402 100.123L110.174 100.939L110.769 100.707L111.154 99.6492L112.025 100.487L112.697 100.509L113.039 99.539L113.799 99.7704L114.405 99.5721L114.527 98.4039L115.221 98.437L115.761 98.1394L116.521 98.1615L116.786 97.4782L117.744 97.6325L118.229 97.1917L118.351 96.4093L118.24 95.5497L119.045 95.3734L119.453 94.8775L119.981 94.4036L120.114 93.7534L119.375 92.9159L120.29 92.4641L119.871 91.8029L119.464 91.2078L120.07 90.5686L120.466 89.8744L119.706 89.3785L119.397 88.8385L119.75 88.0671L119.012 87.6814L119.155 86.943L119.254 86.1937L118.152 86.0724L118.34 85.2459L117.315 85.1578L117.304 84.4304L116.929 83.3174L117.061 84.4304L116.642 85.1027L116.874 85.6757L117.039 86.2598L117.381 86.8659L116.973 87.45L116.598 87.9789L116.587 88.552L117.249 89.4115L116.422 89.7201L116.323 90.3593L116.18 91.0315L115.474 91.2078L115.21 91.88L114.46 91.858L113.733 91.6596L113.502 92.7506L112.818 92.6294L112.212 92.7176L111.694 93.4559L110.989 92.6514L110.394 92.8498L109.777 93.3347L109.171 92.5302L108.51 93.3237L107.87 93.4118L107.397 92.2106L106.636 93.1033L106.217 92.0343L105.336 93.1253L105.082 91.6817L104.179 92.5523L103.639 92.1666L103.242 91.4943L102.393 91.9021L101.831 91.6266L101.776 90.3372L100.84 90.8111L100.553 90.0727L100.2 89.4777L99.1866 89.9405L98.4703 89.8964L98.2058 89.1801L97.9083 88.5409L96.9164 88.8165L96.663 88.1222L96.8062 87.0092L96.3434 86.6124L95.6822 86.4361L94.7455 86.5353L94.4039 85.9953L94.1724 85.3561L93.7757 84.8823L93.4341 84.3643L93.2137 83.7362L92.3431 83.6811L91.715 83.3946L91.2521 82.9648L91.0538 82.3256L91.2742 81.3889L91.1089 80.7497L90.3705 80.5183L89.8636 80.1216L89.1583 79.8461L88.8387 79.3171L88.993 78.4796L88.4861 78.0719L87.6596 77.8515L87.7257 77.0911L87.3179 76.6062L87.2188 75.956L87.4171 75.1515L86.9984 74.6777L86.5025 74.2479L85.6539 73.9834L85.2792 73.4765L85.687 72.6059L84.8274 72.3194L85.0478 71.6471L85.0368 72.2532L84.1882 72.4847L84.3866 73.2451L83.9017 73.7189L84.034 74.3911L82.9871 74.8209L84.0009 75.6034L83.9127 76.1874L83.1303 76.7715L83.4168 77.3996L84.0229 77.9727L83.505 78.6339L84.1993 79.1518L84.2433 79.7579L83.516 80.5293L83.8907 81.0803L84.2323 81.6313L84.5188 82.1824L85.147 82.6232L84.3095 83.5599L84.3646 84.21L85.3123 84.5076L85.7972 84.9594L85.147 85.9402L85.4776 86.4802L86.811 86.5022L86.2049 87.5161L86.3702 88.1332L87.2518 88.3426L87.6486 88.8165L88.2657 89.1471L87.9241 90.1058L88.3208 90.5907L88.6844 91.0976L89.4779 91.2739L89.0371 92.398L90.3705 92.1225L89.8636 93.3457L90.3375 93.7645L90.8995 94.1061L91.9023 94.0179L91.759 95.0208L92.5525 95.0979L93.2247 95.2632L93.368 96.0346L94.2275 95.9575L94.6132 96.4424L94.4369 97.6876L95.572 97.1917L95.6712 98.1284L96.3765 98.1725L96.696 98.8447L97.3132 99.0321L98.1727 98.7015L98.4152 99.6051L98.856 100.2L99.44 100.465L100.333 99.7263L100.74 100.553Z" fill="#870300"/>
<path d="M64.837 75.4381L64.1427 75.0744L63.5476 75.7687L62.9305 75.372L62.2803 74.8209L61.7403 75.8348L61.046 75.0634L60.3959 74.865L59.911 75.945L59.1947 75.2177L58.6437 75.7356L57.9053 75.1185L57.4425 75.9781L56.9025 76.3968L56.1862 76.0442L55.514 75.923L55.0401 76.5291L54.3568 76.3748L53.9822 77.2343L53.4312 77.4988L52.9132 77.8515L52.0316 77.2784L51.4035 77.4107L50.7974 77.587L50.4778 78.3253L50.0811 78.8874L49.5411 79.1408L48.8137 79.1518L48.3068 79.5045L47.6787 79.6918L47.0615 79.9233L47.2379 81.0693L46.8301 81.4991L45.5298 81.0914L45.7612 82.1383L45.5077 82.7113L44.5159 82.7444L44.8685 83.7142L43.7114 83.7362L43.4359 84.3203L43.9098 85.2239L43.5572 85.7419L42.8519 86.1386L43.4249 86.9651L42.4331 87.3398L42.5213 88.001L42.3339 88.5961L42.378 89.2352L41.849 89.8193L42.1796 90.4695L42.918 91.1307L42.7968 91.7368L41.9262 92.3098L42.1245 92.938L41.6507 93.5331L41.8601 94.1612L42.7527 94.8004L41.9372 95.4065L41.5735 96.0126L42.6755 96.6407L42.7858 97.2579L42.3009 97.875L42.6315 98.4811L41.8711 99.1092L41.9592 99.7264L42.0805 100.343L42.7196 100.939L41.8821 101.589L41.7829 102.217L42.6755 102.779L42.0033 103.44L42.9841 103.98L42.8298 104.608L42.6976 105.236L42.8078 105.843L42.5102 106.493L43.2376 107.033L42.367 107.76L42.6094 108.355L43.0502 108.917L42.8519 109.578L43.3147 110.118L43.9098 110.636L43.5461 111.331L43.0282 112.069L44.2294 112.444L44.2624 113.072L43.9098 113.788L43.9318 114.416L44.0971 115.022L44.031 115.683L43.9759 116.345L44.4388 116.863L44.8575 117.381L45.7502 117.733L45.2873 118.549L45.0779 119.287L45.2873 119.882L46.5436 120.036L46.5216 120.709L46.7199 121.293L47.326 121.689L47.0615 122.505L47.6126 122.913L47.4032 123.728V124.455L48.4831 124.533L48.935 124.973L49.0892 125.602L49.2105 126.274L50.0811 126.395L50.4888 126.858L50.0811 127.96L50.7863 128.191L51.3814 128.478L52.0206 128.731L51.9104 129.679L52.3292 130.153L52.4945 130.891L53.354 130.869L53.9381 131.134L54.1034 131.927L55.1834 131.53L55.4368 132.214L56.1531 132.247L56.4837 132.853L56.638 133.812L57.3764 133.778L58.1808 133.602L58.4673 134.374L59.2608 134.142L59.8889 134.219L60.1755 135.134L61.002 134.704L61.553 134.947L61.8836 135.916L62.3905 136.39L63.1288 136.093L63.8562 135.729L64.2419 136.798L64.9361 136.533L65.5753 136.456L66.2145 136.368L66.7434 137.051L67.4597 136.357L67.9556 137.437L68.6058 137.217L69.234 137.14L69.8511 137.195L70.4572 137.481L71.0854 137.713L71.7025 137.68L72.3306 137.327L72.9478 136.897L73.5759 137.217L74.2151 137.602L74.8322 137.492L75.4493 137.338L76.0003 136.401L76.6505 136.798L77.3227 137.272L77.9398 137.173L78.59 137.327L79.119 136.567L79.7141 136.236L80.4084 136.688L81.0145 136.522L81.5214 135.861L82.3258 136.699L82.6675 135.288L83.5601 136.401L84.078 135.883L84.4748 134.991L85.3674 135.839L85.8853 135.398L86.3372 134.759L86.9102 134.539L87.7257 134.969L88.1004 134.186L88.6293 133.867L89.3126 133.889L89.9958 133.878L90.4697 133.426L90.8334 132.776L91.3182 132.39L92.2329 132.743L92.5966 132.136L92.7729 131.266L93.908 131.839L94.2386 131.211L94.2606 130.219L94.8888 130.043L95.7593 130.098L96.4536 129.932L96.3544 128.908L97.4124 129.084L97.1369 127.971L97.3462 127.332L97.7319 126.869L98.3931 126.615L98.9442 126.252L99.1976 125.679L99.0984 124.885L100.211 124.852L100.289 124.169L100.211 123.431L101.016 123.144L100.972 122.439L101.512 121.998L102.129 121.579L101.347 120.609L102.449 120.345L102.107 119.574L102.57 119.067L102.393 118.372L103.308 117.965L103.099 117.27L103.451 116.708L103.209 116.025L103.319 115.408L103.121 114.758L103.672 114.207L102.933 113.501L103.958 112.973L103.473 112.311L103.958 111.716L104.002 111.088L103.165 110.449L103.815 109.843L103.297 109.226L103.44 108.609L102.978 108.013L102.9 107.407L103.198 106.768L103.33 106.14L103.011 105.545L103.363 104.895L103.264 104.278L103.132 103.672L103.672 102.966L103.683 102.338L102.36 101.919L102.195 101.324L102.933 100.564L102.426 100.024L102.294 99.4288L102.603 98.7235L102.415 98.1284L101.82 97.6215L102.195 96.8942L102.25 96.233L101.148 95.8803L101.622 95.0979L101.225 94.569L101.148 93.9408L100.906 93.3678L100.564 92.8168L100.355 92.2437L99.8258 91.7699L100.289 90.9433L100.035 90.3703L99.1425 90.0507L99.3299 89.3124L98.5474 88.9707L99.1535 88.0451L98.5584 87.6263L98.327 87.0532L98.1507 86.4582L97.4234 86.1165L97.9193 85.1909L97.3132 84.8051L97.236 84.155L96.4316 83.8795L96.6961 83.0309L96.5528 82.3918L96.0238 81.984L96.0128 81.2567L95.6051 80.7608L94.3708 80.904L94.9549 79.6367L93.8198 79.813L94.1504 78.7221L92.8941 78.9976L93.1586 77.9617L92.3762 77.8184L92.0015 77.3445L91.9023 76.6062L91.0978 76.507L91.0868 75.6805L90.2713 75.6144L90.3264 74.6887L89.3456 74.8209L89.4007 73.8402L88.5191 73.9173L87.891 73.73L87.6155 73.0908L87.0314 72.8594L86.249 72.9585L86.4143 71.5039L85.8302 71.2394L85.0037 71.4929L84.5629 70.9639L84.067 70.5121L83.4058 70.49L82.7777 70.4129L82.0393 70.8317L81.5214 70.3798L80.9043 70.3358L80.3092 70.1374L79.7031 69.9611L79.0859 69.7627L78.4468 69.6746L77.8958 70.6443L77.2676 70.457L76.6615 70.5121L76.0885 70.7435H75.4713L74.7661 70.4129H74.1159L73.5208 70.5782L73.1682 71.537L72.518 71.5039L71.7796 71.2615L71.1294 71.2945L71.0192 72.661L70.1046 72.0549L69.6087 72.4516L69.223 73.0798L68.4075 72.8153L67.9446 73.2451L67.5259 73.7851L67.1842 74.4352L66.6332 74.6997L66.0822 74.9532L65.6414 75.405L64.837 75.4381Z" fill="#DC0B00"/>
<g opacity="0.5">
<path d="M103.76 106.504L103.628 107.573L103.848 108.179L103.517 108.818L104.124 109.424L103.738 110.041L103.22 110.658L103.143 111.264L103 111.87L103.528 112.51L103.517 113.127L104.035 113.81L103.661 114.394L103.209 114.956L102.867 115.529L103.044 116.179L102.526 116.697L102.283 117.27L103.231 118.13L102.184 118.494L102.36 119.188L102.57 119.904L102.162 120.422L101.787 120.951L101.104 121.337L100.928 121.921L100.707 122.483L101.148 123.386L100.421 123.706L100.586 124.511L99.6605 124.687L99.6164 125.381L99.0213 125.723L99.2968 126.682L98.2168 126.648L98.2058 127.42L97.214 127.376L96.7952 127.806L97.3022 129.139L96.145 128.852L95.5169 129.062L95.8034 130.307L95.2745 130.66L94.2937 130.406L94.2826 131.42L93.4451 131.299L92.7178 131.321L92.7839 132.566L91.8472 132.214L91.2411 132.379L90.7783 132.798L90.3485 133.305L89.544 133.051L89.015 133.349L88.5632 133.823L88.2326 134.649L87.2959 133.922L86.8771 134.539L86.5025 135.376L85.6319 134.682L85.0478 134.836L84.4748 135.079L84.078 135.982L83.4499 136.038L82.8989 136.39L82.0614 135.442L81.7087 136.831L81.0145 136.522L80.3202 136.126L79.7251 136.346L79.1741 136.864L78.5019 136.511L77.8958 136.666L77.2676 136.611L76.7276 137.525L76.0995 137.536L75.3942 136.412L74.8432 137.503L74.171 136.489L73.5759 136.963L72.9698 137.47L72.3416 136.5L71.7245 137.624L71.0964 137.14L70.4682 137.36L69.8621 136.985L69.245 136.842L68.5728 137.371L67.9887 137.018L67.3165 137.283L66.6663 137.382L66.1153 136.842L65.5312 136.589L64.848 136.809L64.33 136.247L63.8121 135.762L62.9415 136.611L62.3354 136.434L62.0489 135.266L61.3105 135.52L60.6603 135.487L60.1093 135.167L59.4812 135.046L58.8641 134.88L58.7869 133.613L57.7841 134.23L57.1559 134.076L56.6049 133.767L56.0319 133.481L56.065 132.291L55.6021 131.905L54.6764 132.125L54.2246 131.696L53.9822 131.012L53.7177 130.384L53.2879 129.965L52.7369 129.657L51.8112 129.723L51.5688 129.095L50.8194 128.919L50.7974 128.125L50.3345 127.695L50.5219 126.781L49.9157 126.472L49.6953 125.888L49.1884 125.491L49.0231 124.874L48.6044 124.422L48.3619 123.849L47.0726 123.871L47.3591 123.001L46.775 122.615L46.5216 122.042L46.5987 121.315L45.7061 121.039L45.8604 120.29L46.1689 119.496L45.0449 119.276L45.6069 118.405L45.662 117.733L44.5049 117.48L45.0889 116.631L44.4939 116.168L45.0449 115.375L44.1412 114.989L43.6894 114.46L44.031 113.733L44.1633 113.072L43.5792 112.576L43.7996 111.893L42.9841 111.43L42.7968 110.835L42.5433 110.24L43.2706 109.49L43.3147 108.862V108.234L42.7196 107.694L42.3339 107.121L42.3119 106.493L42.6204 105.842L42.5433 105.225L42.6976 104.586L42.8629 103.958L41.827 103.407L41.7499 102.79L42.929 102.107L42.0254 101.534L41.827 100.917L42.5764 100.277L41.7278 99.6823L42.6976 99.0321L42.6645 98.426L41.838 97.8089L41.9592 97.1917L42.4992 96.5856L41.7058 95.9575L42.5874 95.3624L42.2017 94.9106L42.1907 95.4065L42.5323 95.9354L42.356 96.6958L42.951 97.1036L43.9208 97.3129L44.1082 97.886L43.6563 98.8227L44.1522 99.2525L44.0751 100.013L44.582 100.432L45.684 100.476L45.3534 101.423L45.3975 102.129L46.6538 102.019L47.1056 102.437L47.0836 103.22L47.7117 103.506L47.4913 104.465L47.9432 104.895L48.428 105.303L49.2986 105.347L49.0782 106.382L49.4088 106.922L50.4557 106.757L50.4006 107.705L51.4916 107.429L51.8002 107.991L52.1528 108.531L52.6487 108.884L52.9022 109.556L53.7838 109.413L53.7177 110.537L54.3238 110.768L55.0291 110.813L55.3817 111.408L56.098 111.419L56.8694 111.297L57.1559 112.025L57.3984 112.884L58.4453 112.19L58.9412 112.543L59.2828 113.259L59.7898 113.634L60.3628 113.865L60.8587 114.306L61.3656 114.747L62.0489 114.67L62.7101 114.637L63.5035 114.119L63.9002 114.956L64.3961 115.562L65.0023 115.717L65.8288 114.769L66.3798 115.165L66.9638 115.331L67.625 115.044L68.143 115.739L68.7932 115.507L69.3442 116.146L69.9393 116.554L70.6225 115.717L71.2396 115.595L71.8347 115.838L72.4518 116.124L73.069 115.496L73.6751 115.441L74.3142 116.422L74.9093 116.014L75.5154 115.717L76.0995 115.375L76.7717 116.058L77.3999 116.036L78.0611 116.389L78.601 115.728L79.1851 115.474L79.8684 115.904L80.3202 114.846L80.9924 115.132L81.5214 114.648L82.1826 114.857L82.943 115.463L83.4609 114.945L83.9348 114.273L84.6621 114.67L85.1249 113.986L85.6649 113.656L86.4584 114.207L86.8551 113.369L87.4502 113.226L88.2767 113.821L88.9599 113.931L89.4007 113.27L89.8195 112.565L90.7121 113.259L91.1529 112.664L91.6709 112.278L92.1778 111.882L92.9602 112.223L93.2468 111.264L94.1945 111.97L94.6683 111.474L95.1863 111.121L95.7593 110.89L96.4316 110.879L97.0928 110.824L97.6438 110.515L98.0515 109.942L98.4482 109.303L99.1425 109.336L99.8809 109.435L100.41 109.093L100.917 108.719L101.071 107.639L101.831 107.76L102.636 107.958L103.176 107.65L103.76 106.504Z" fill="#870300"/>
</g>
<g opacity="0.5">
<path d="M93.7427 78.4025L92.9272 77.7192L92.1448 77.587L91.3513 77.4657L90.9876 76.9698L90.7672 76.3527L90.624 75.6254L90.3595 75.0083L89.4007 75.1074L88.8608 74.7989L88.9489 73.763L88.6073 73.201L87.902 73.0798L87.0424 73.223L86.7559 72.5398L86.0286 72.5728L85.676 71.9557L85.2903 71.3606L84.4638 71.6692L84.2323 70.6113L83.5821 70.5231L82.8328 70.8427L82.414 69.9611L81.7859 69.8178L81.0475 70.457L80.4855 69.939L79.8133 70.7215L79.2182 70.1815L78.59 69.7296L78.028 70.7766L77.3778 70.3798L76.7717 70.4239L76.1987 70.7766L75.5375 70.5562L75.0526 71.1953L74.4134 71.1292L73.8734 71.4818L72.9698 70.6443L72.4188 70.9749L72.1763 72.121L71.2947 71.548L70.9862 72.4075L70.0825 71.8565L69.6858 72.5067L69.1789 72.8814L68.6609 73.234L68.0658 73.4104L67.7793 74.1928L66.9418 73.9283H66.2255L65.8728 74.5675L65.0023 74.325L64.7708 75.1846L64.1427 74.5344L63.5366 75.2177L62.9195 74.887L62.3464 75.5593L61.7403 75.5152L61.0461 74.7217L60.5612 75.8789L59.944 75.8238L59.3269 75.7687L58.6326 75.2728L58.1147 75.9119L57.3764 75.2838L57.0017 76.496L56.3184 76.2315L55.8446 76.8486L55.1944 76.7605L54.5883 76.8266L54.1254 77.3666L53.4752 77.3115L52.9242 77.5649L52.1859 77.3445L51.8663 78.16L51.3043 78.3694L50.5439 78.1931L49.9268 78.3253L49.5521 78.9094L48.7366 78.7661L48.2848 79.2179L47.8219 79.6367L47.4913 80.2098L47.0395 80.6285L46.4554 80.9701L46.8852 81.4991L47.7889 81.444L47.6456 82.513L48.6484 82.3036L49.1994 82.6011L49.0011 83.8243L49.6403 84.0227L50.6872 84.177L49.5521 84.0668L49.6843 85.1357L49.3758 85.5435L48.7035 85.6316L48.5162 86.2267L47.9321 86.6014L48.2958 87.3508L47.8109 87.8467L47.2379 88.4197L47.1607 89.0699L47.0946 89.7311L47.7448 90.2821L47.8991 90.8772L48.6044 91.318L48.4831 91.9792L48.3399 92.6845V93.3457L48.8578 93.8085L48.7586 94.5469L48.968 95.153L50.2464 95.131L49.7835 96.1448L50.4337 96.4534L51.128 96.7068L51.3373 97.324L51.5908 97.908L51.6349 98.7015L52.1198 99.1092L52.5936 99.528L53.5854 99.3517L53.7397 100.123L54.5442 100.068L54.6544 100.994L55.3597 101.038L55.7564 101.611L56.638 101.17L56.8805 102.217L57.6188 101.952L58.0596 102.856L58.7208 102.977L59.4151 101.732L60.0542 102.724L60.7485 102.911L61.1012 101.677L61.6632 101.545L62.5668 102.03L62.688 101.016L63.5256 101.137L64.2749 101.027L63.9664 99.8145L64.9582 99.9027L65.4761 99.5059L65.7406 98.9108L65.8728 98.2496L66.6883 97.9962L66.9638 97.4231L67.0189 96.7399L66.9198 95.715L67.5479 96.9162L68.3854 96.5746L68.9585 95.8142L69.785 96.5525L70.369 96.4093L70.9311 96.1779L71.3168 95.2852L71.9229 95.2191L72.4518 94.8555L73.3224 95.7591L73.4106 94.3596L74.0387 94.4587L74.6338 94.5359L75.0526 94.7232L75.802 94.6902L76.1215 95.3844L76.7056 95.6048L77.2235 95.9795L78.1162 95.4175L78.6451 95.6489L78.9317 96.9383L79.7471 96.0346L80.2431 97.1476L80.9043 96.7179L81.4883 96.2109L82.2487 97.0925L82.5903 95.8473L83.2956 96.0897L83.7364 95.6048L84.4307 95.5938L85.0037 95.3073L85.0699 94.4698L85.698 94.2383L85.8192 93.5661L86.0066 92.982L86.7119 92.7286L87.1306 92.2657L87.0976 91.5715L87.7367 91.1858L88.2877 90.7339L87.5163 89.8193L87.6816 89.2462L88.8277 88.9156L88.4971 88.1993L88.431 87.5712L88.6073 86.9761L88.5632 86.359L88.5081 85.7418L89.6432 85.1798L88.6514 84.5406L88.464 83.9345L88.431 83.3395L88.3649 82.4689L89.6432 82.6232L90.1281 82.2595L90.084 81.3228L90.5468 80.9591L91.2411 80.8048L91.8803 80.5844L92.3101 80.1547L92.5966 79.5926L92.4533 78.689L93.7427 78.4025Z" fill="#870300"/>
</g>
<path d="M66.9969 85.8079C66.5754 87.214 66.0713 88.5939 65.4871 89.9405C65.2153 90.5796 64.9288 91.1747 64.6276 91.7257C57.3653 105.225 46.8191 89.9515 47.6456 82.0501C47.7199 81.0267 48.1043 80.0503 48.7476 79.251C48.7931 79.1872 48.8447 79.1282 48.9019 79.0747C49.7661 78.1415 50.9422 77.5574 52.2079 77.4327C55.8005 77.069 60.1644 79.8902 63.228 82.3587C64.5529 83.4312 65.8115 84.5831 66.9969 85.8079Z" fill="#F89C00"/>
<path d="M85.2792 85.3231C83.8797 92.0674 78.9978 97.897 71.6804 90.8331C71.3829 90.5576 71.0964 90.2601 70.7878 89.9405C69.5789 88.609 68.4737 87.1869 67.4818 85.6867C68.304 84.117 69.2242 82.6006 70.2368 81.1465C73.1902 76.8046 78.1162 71.2945 82.8438 73.9393C85.5437 75.5042 86.26 80.6285 85.2792 85.3231Z" fill="#F89C00"/>
<path d="M72.4408 84.3202L72.5951 88.4417C72.6145 88.9391 72.5282 89.4349 72.3416 89.8964C72.1946 90.2886 71.9611 90.6427 71.6584 90.9323C71.2774 91.3103 70.7883 91.5606 70.2588 91.6486L66.4569 92.2217C65.8047 92.3141 65.1419 92.1524 64.6055 91.7698C63.9465 91.3049 63.48 90.6151 63.2941 89.8303V89.654L62.2803 85.852C62.097 85.2419 62.0898 84.5923 62.2594 83.9782C62.429 83.3641 62.7686 82.8103 63.239 82.3807C63.5946 82.0893 64.02 81.8956 64.4733 81.8187L69.2009 81.1023C69.5434 81.0516 69.8927 81.0742 70.2258 81.1685C70.878 81.3965 71.4425 81.8231 71.8398 82.3884C72.2371 82.9537 72.4473 83.6293 72.4408 84.3202Z" fill="#F89C00"/>
<path d="M76.6725 137.14L75.9121 136.434L76.6284 135.597L76.5954 134.969L76.5072 134.34L75.8681 133.867L75.4603 133.338L76.1325 132.522L75.3281 132.092L74.8983 131.563L75.5264 130.759L75.4713 130.131L75.0636 129.602L74.3252 129.139L74.0938 128.555L74.8322 127.739L74.3693 127.221L73.7853 126.715L74.3693 125.976L73.4987 125.579L73.7632 124.918L74.0277 124.268L73.2122 123.838L72.8155 123.331L72.8706 122.725L73.2783 122.031L72.8486 121.524L73.3555 120.83L73.3224 120.246L72.8816 119.739L72.4188 119.232L72.011 118.725L72.3747 118.053L71.7245 117.59L72.1653 116.896L71.6363 116.4L71.6804 115.805L71.7906 115.188L72.0331 114.548L71.8457 113.986L71.7906 113.413L71.8127 112.807L71.5923 112.256L70.876 111.782L71.2506 111.121L71.1955 110.548L70.6115 110.041L70.1046 109.534L70.6005 108.862L70.8429 108.234L70.7878 107.65L70.7988 107.055L70.3801 106.526L69.9723 105.997L69.3882 105.457L70.4462 104.674L70.1597 104.09L69.7189 103.528L69.9172 102.878L69.0246 102.36L70.1707 101.589L69.5535 101.038L69.3882 100.432L69.4103 99.8145L69.9393 99.1313L69.5535 98.5472L68.9915 97.9741L68.4295 97.4011L68.4405 96.773L68.6499 96.1338L68.9364 95.5497L68.8152 96.1779L69.6968 96.5526L70.0274 97.1036L69.3993 97.9411L69.3662 98.5913L69.8731 99.0982L70.6335 99.528L70.4131 100.233L70.9641 100.729L70.7768 101.423L70.6005 102.107L71.3608 102.559L70.6556 103.374L70.9311 103.947L71.5923 104.421L71.0192 105.203L71.1404 105.809L72.022 106.195L71.7135 106.867L72.6502 107.264L72.2645 107.947L71.9449 108.609L73.069 108.972L72.7494 109.633L72.8375 110.217L73.2232 110.735L73.0028 111.375L73.642 111.848L73.5428 112.455L73.8404 112.995L72.9147 113.777L73.1681 114.317L74.2702 114.692L73.5428 115.441L74.3252 115.893L73.5979 116.62L74.1269 117.116L74.3473 117.667L74.5457 118.229V118.813L75.2069 119.298L74.6889 119.981L74.4465 120.62L74.9203 121.138L74.3803 121.811L75.0856 122.295L74.5457 122.979L75.295 123.453L75.0305 124.081L75.7468 124.566V125.15L74.9865 125.855L76.1656 126.285L76.1215 126.88L76.0444 127.486L75.5375 128.136L76.1436 128.654L75.4713 129.326L76.6505 129.778L76.2978 130.406L76.8599 130.935L76.6725 131.552L76.6284 132.147L77.0472 132.698L76.8488 133.305L76.948 133.889L76.5182 134.517L77.1905 135.068L77.1795 135.663L76.6946 136.28L76.6725 137.14Z" fill="#870300"/>
<g style="mix-blend-mode:overlay" opacity="0.5">
<path d="M85.2792 85.3231C81.6315 87.5915 77.5591 89.0915 73.3114 89.7311L72.3637 89.8634C71.8457 89.9295 71.2617 89.9736 70.7878 90.0066C69.0241 90.1556 67.2509 90.1556 65.4871 90.0066C64.7378 89.9295 63.9884 89.8303 63.2831 89.6981C57.4636 88.7151 52.048 86.0838 47.6787 82.1162C47.293 81.7636 46.9183 81.4109 46.5767 81.0142C47.2584 80.3763 47.996 79.801 48.7807 79.2951C49.8756 78.577 51.0383 77.968 52.252 77.4768C55.8446 77.1131 60.2085 79.9343 63.2721 82.4028C63.6277 82.1113 64.0531 81.9176 64.5064 81.8407L69.234 81.1244C69.5764 81.0737 69.9257 81.0962 70.2588 81.1905C73.2122 76.8486 78.1382 71.3386 82.8658 73.9834C85.5437 75.5042 86.26 80.6285 85.2792 85.3231Z" fill="black"/>
</g>
<path d="M52.9353 147.906L53.2548 147.102L53.8499 146.936L54.6654 147.223L55.2385 147.014L55.7895 146.716L56.098 145.989L56.6711 145.746H57.3763L58.1037 145.768L58.6437 145.46L58.9081 144.71L59.1836 144.005L59.6134 143.553L60.7154 144.06L61.1783 143.641L61.6411 143.212L61.6191 142.187L62.1701 141.911L62.644 141.515L63.3603 141.382L64.0876 141.228L64.1868 140.468L64.2198 139.696L65.2557 139.729L65.2667 138.969L65.5753 138.451L65.9059 137.933L66.9197 137.702L66.8316 136.963L66.1373 136.126L66.5891 135.619L66.8646 135.046L66.9638 134.418L66.6663 133.834L67.0079 133.139L66.8206 132.522L66.7655 131.85L66.3577 131.343L65.41 131.079L65.0353 130.583L64.7267 130.043L64.7488 129.348L65.3329 128.335L64.4733 128.081L64.297 127.475L63.7239 127.089L63.0517 126.77L63.757 125.602L62.3023 125.789L62.8974 124.654L61.9497 124.544L62.3244 123.519L60.9799 123.706L61.3656 122.67L60.7926 122.307L60.0212 122.108L60.0652 121.293L59.6465 120.819L59.5142 120.125L59.2277 119.551L58.7649 119.122L57.751 119.177L57.5306 118.538L56.6711 118.483L56.7151 117.612L56.7702 116.697L55.8446 116.73L55.8997 116.488L54.974 116.852L55.0291 117.48L55.9217 118.174L54.8417 118.703L54.5772 119.309L55.3266 119.981L54.7866 120.565L54.6874 121.182L55.6242 121.877L55.2274 122.461L55.1503 123.078L54.6544 123.673L54.996 124.323L54.2136 124.885L54.1475 125.502L54.5442 126.153L55.1062 126.814L54.4891 127.387L54.3348 128.004L54.0042 128.599L54.0593 129.227L54.9299 129.921L54.0593 130.472L54.4891 131.134L54.8638 131.784L54.1585 132.357L53.6185 132.941L54.2246 133.613L54.3348 134.241L53.7067 134.825L54.2136 135.487L53.7397 136.071L53.2769 136.666L54.1364 137.349L53.4973 137.933L54.2797 138.616L53.8169 139.211L53.0565 139.773L53.365 140.413L52.814 140.997L52.9463 141.636L53.0344 142.264L53.332 142.914L52.9132 143.509L52.5716 144.104L52.6377 144.743L53.4752 145.427L52.792 146.011L52.9793 146.65L53.2328 147.3L52.9353 147.906Z" fill="#870300"/>
<path d="M57.0458 119.32L57.5306 119.739L58.1147 120.114L58.9632 120.345L58.5665 121.282L59.4702 121.513L59.2498 122.318L59.8338 122.747L59.6134 123.519L59.5694 124.202L60.0322 124.676L60.3848 125.216L60.1975 125.921L61.1122 126.296L61.4318 126.869L61.7073 127.464L61.1232 128.224L61.586 128.775L61.564 129.414L61.5971 130.032L61.8836 130.638L61.553 131.288L62.2913 131.883L61.542 132.522L62.093 133.161L62.0378 133.8L61.6742 134.396L61.8395 135.046L61.3546 135.608L61.1673 136.214L60.9469 136.798L61.4648 137.558L60.9028 138.054L61.0681 138.771L60.1204 139.101L59.8118 139.619L60.6603 140.666L60.1644 141.151L59.2387 141.36L58.9081 141.889L58.3351 142.242L58.9963 143.443L58.1698 143.619L58.258 144.501L57.2111 144.424L56.7592 144.843L56.098 145.041L56.4396 146.341L55.7123 146.474L55.1723 146.815L54.8968 147.543L53.7838 146.958L53.5414 147.774L52.781 147.664L52.23 147.939L51.8663 148.678L51.3704 149.185L50.5549 148.722L49.8937 148.622L49.2656 148.567L48.7146 148.964L48.1415 149.262L47.5905 150L46.9293 149.636L46.2901 149.449L45.662 149.912L45.0449 149.471L44.4718 148.843L43.8327 149.096L43.1715 149.35L42.6535 148.766L42.0694 148.578L41.4413 148.6L40.5817 149.35L40.0197 149.008L39.4577 148.678L38.9177 148.314L38.4659 147.785L38.1132 147.058L36.9892 147.972L36.4933 147.554L35.8762 147.333L35.4794 146.749L34.8292 146.606L34.5317 145.901L33.9587 145.636L33.1872 145.614L33.3636 144.358L32.6583 144.248L32.3718 143.641L31.7767 143.377L31.1155 143.168L30.7628 142.639L29.8812 142.606L29.5176 142.077L29.5616 141.206L29.209 140.688L28.8123 140.214L28.0298 140.016L27.7103 139.465L27.6441 138.748L27.6221 138.032L27.3135 137.492L26.5752 137.206L25.8699 136.875L25.4622 136.368L26.1124 135.343L25.8038 134.814L25.4952 134.274L24.5034 133.988L24.4153 133.349L24.2279 132.743L24.4042 132.026L24.6136 131.31L24.0296 130.825L23.4234 130.318L24.1177 129.536L23.5777 128.996L23.4565 128.379L23.4124 127.75L24.1728 127.067L23.7871 126.483L22.8504 125.888L23.192 125.249L23.4124 124.621L23.5336 124.004L23.3353 123.364L23.8532 122.791L23.9194 122.185L24.1949 121.612L24.1508 120.973L23.5557 120.18L23.5998 119.529L23.7541 118.901L24.272 118.405L25.4291 118.196L25.0875 117.381L25.4842 116.885L25.5062 116.19L25.4511 115.43L26.8176 115.551L26.0572 114.284L27.3356 114.438L27.1593 113.501L28.2392 113.623L27.7874 112.344L28.8784 112.565L29.1649 111.97L29.3412 111.187L30.1677 111.231L30.6526 110.846L31.3579 110.813L31.953 110.636L32.4489 110.295L32.6693 109.303H33.3526L33.7493 108.52L34.5427 108.917L35.3141 109.402L35.7549 108.598L36.2839 107.991L37.0443 108.818L37.6394 108.642L38.1904 107.65L38.8626 108.664L39.4687 108.884L40.1079 108.091L40.6919 108.642L41.298 108.752L42.0584 107.848L42.6205 108.311L43.2376 108.465L43.7445 109.038L44.4498 108.829L44.8245 109.711L45.3865 109.92L46.1248 109.722L46.9403 109.391L47.2819 110.162L47.7889 110.526L48.2076 111.055L48.8027 111.264L49.8055 110.779L49.9047 111.804L50.6872 111.749L51.4586 111.771L51.5798 112.664L51.7671 113.424L52.6598 113.314L53.2328 113.601L53.3099 114.449L54.1475 114.482L54.2907 115.221L54.412 115.959L55.514 115.805L55.4699 116.653L56.5168 116.62L56.5829 117.369L56.3735 118.295L57.0347 118.593L57.0458 119.32Z" fill="#DC0B00"/>
<path d="M52.0977 122.593L52.77 122.913L52.0426 124.07L53.3871 124.026L52.6157 125.117L53.1557 125.524L54.1144 125.789L54.3569 126.373L54.6875 126.924L54.7756 127.563L55.0842 128.136L54.0593 129.04L54.2356 129.613L54.9409 130.109L55.3817 130.671L55.4809 131.299L54.5001 131.993L55.536 132.566L54.7095 133.183L54.9299 133.8L55.3597 134.462L55.2385 135.079V135.718L55.0511 136.335L54.4781 136.831L54.5662 137.503L53.8059 137.889L53.5524 138.429L53.1667 138.903L53.2879 139.641L53.0455 140.203L52.9463 140.886L52.5716 141.393L52.0757 141.79L51.3704 141.977L50.9296 142.385L50.8084 143.179L50.3896 143.663L49.9709 144.181L49.0231 143.829L48.4942 144.115L48.0974 144.699L47.282 144.325L46.9183 145.096L46.4555 145.746L45.651 145.03L45.0339 144.997L44.4829 145.405L43.8988 145.956L43.2706 145.669L42.6645 145.405L42.0805 145.151L41.3531 146.011L40.7911 145.537L40.2071 145.305L39.6781 144.909L39.1712 144.49L38.2455 145.316L37.8377 144.633L37.2096 144.512L36.4382 144.677L35.9974 144.115L35.7549 143.289L34.8403 143.586L34.5207 142.936L34.3113 142.176L33.2093 142.594L33.4187 141.349L33.0109 140.908L32.4599 140.622L31.7987 140.413L30.9281 140.379L31.1045 139.388L30.1788 139.344L30.2339 138.517L29.5837 138.22L29.6498 137.426L29.5727 136.754L29.0327 136.368L28.5919 135.916L28.669 135.189L27.6993 134.969L27.3025 134.462L26.9389 133.922L27.4127 133.084L26.8838 132.61L26.8287 131.971L26.7074 131.365L26.3658 130.803L26.6083 130.131L25.8258 129.613L26.5091 128.908L25.892 128.323L25.903 127.695L26.2226 127.067L26.0242 126.439L26.476 125.844L26.6193 125.249L26.8176 124.665L26.2887 123.926L26.8397 123.42L26.6634 122.714L27.6001 122.395L27.9197 121.877L27.0931 120.819L27.6001 120.356L28.5478 120.191L28.8894 119.695L29.4845 119.397L28.9335 118.152L29.771 118.064L29.7931 117.182L30.8179 117.392L31.3249 117.05L31.9861 116.962L31.8869 115.617L32.6252 115.628L33.2093 115.397L33.6391 114.747L34.5868 115.573L35.0056 114.835L35.7109 115.132L36.3059 115.011L36.8459 114.394L37.4631 114.041L38.1132 114.714L38.7083 115L39.2924 115.232L39.9205 115.011L40.5487 114.912L41.298 114.383L41.816 114.934L42.345 115.32L43.0833 115.077L43.5241 115.683L43.8547 116.466L44.5269 116.433L45.2322 116.4L45.5298 117.127L46.0146 117.491L46.6097 117.689L47.6566 117.281L48.0754 117.788L48.4832 118.284L48.8468 118.824L49.0893 119.474L49.1444 120.268L50.5108 119.827L50.8304 120.4L51.3153 120.819L51.4696 121.502L52.0096 121.888L52.0977 122.593Z" fill="#FFBE69"/>
<path d="M103.187 140.357L102.261 139.939L101.589 140.39L100.994 140.17L100.344 140.313L99.8037 139.784L99.1535 139.928L98.6356 139.355L97.9854 139.498L97.2581 139.873L96.7071 139.52L96.2222 138.936L95.3957 139.597L95.021 138.66L94.3598 138.715L93.7096 138.671L93.379 137.779L92.7068 137.812L92.0125 137.878L91.6709 137.129L90.7452 137.613L90.2272 137.25L89.7203 136.864L89.015 136.787L88.8718 135.872L88.5963 135.244L87.4392 135.641L87.4722 134.693L86.7229 134.517L86.0506 134.219L86.1939 133.338L85.676 132.897L85.9294 132.114L86.1608 131.431L85.8964 130.913L84.7833 130.428L85.8082 129.778L85.1249 129.139L85.676 128.566L85.1911 127.883L85.5878 127.31L85.5768 126.67L85.9074 126.097L85.3674 125.359L86.1829 124.885L85.6429 124.136L86.5025 123.695L86.2931 123.001L86.6237 122.439L86.0617 121.645L87.1416 121.304L87.4722 120.753L86.9653 119.948L88.0122 119.629L87.4502 118.78L87.2849 118.064L88.6514 117.887L87.7367 116.885L89.0812 116.73L89.004 116.036L88.5302 115.165L88.7726 114.592L88.9159 113.964L89.2795 113.446L89.4228 112.818L90.7893 112.785L91.0097 112.212L90.7562 111.386L91.4174 110.603L91.737 111.286L91.0207 112.245L92.1888 112.444L91.6488 113.325L92.1007 113.81L92.7839 114.196L92.9713 114.791L93.2908 115.331L93.4672 115.926L93.3019 116.664L93.7867 117.138L93.4672 117.932L93.6655 118.527L93.7537 119.166L94.3928 119.574L94.7014 120.125L95.2083 120.587L95.4287 121.16L95.5389 121.789L95.3957 122.516L95.6161 123.1L96.3214 123.486L96.674 124.015L97.0707 124.533L96.5528 125.403L96.7842 125.976L97.3462 126.428L96.9605 127.255L97.754 127.607L98.4482 128.004L97.8532 128.908L97.9523 129.536L98.4923 129.988L99.1976 130.384L99.1535 131.078V131.751L99.1756 132.412L100.278 132.643L100.145 133.36L100.278 133.977L100.267 134.649V135.321L101.49 135.509L101.258 136.269L101.622 136.798L102.283 137.206L102.239 137.9L101.92 138.704L102.823 139.013L102.702 139.707L103.187 140.357Z" fill="#870300"/>
<path d="M89.4999 113.986L90.3264 114.868L89.8636 115.386L89.2685 115.882L89.4999 116.576L89.6212 117.226L89.4228 117.81L89.4558 118.438L89.2465 119.034L88.3318 119.596L88.5742 120.246L88.453 120.874L88.5191 121.502L89.1142 122.119L89.0481 122.747L88.442 123.42L89.2024 123.971L88.8608 124.643L88.8057 125.293L89.7534 125.756L88.8828 126.571L89.6873 127.034L89.6762 127.684L90.4366 128.103L90.7121 128.643L90.1942 129.481L91.0648 129.8L90.9987 130.494L90.8444 131.255L91.4946 131.63L91.4395 132.379L92.266 132.61L92.6407 133.095L93.1696 133.459L92.6076 134.649L93.7978 134.495L93.401 135.663L93.7316 136.225L94.4039 136.467L94.7896 136.985L95.1973 137.503L96.2773 137.162L96.4316 137.999L97.0377 138.22L97.7099 138.33L97.9744 139.134L98.5254 139.454L99.429 138.98L100.002 139.178L100.542 139.487L101.005 140.071L101.545 140.534L102.316 139.928L102.801 140.743L103.54 139.928L104.091 140.721L104.708 140.975L105.347 140.655L105.975 140.688L106.647 141.052L107.253 140.721L107.727 139.718L108.576 140.875L109.094 140.269L109.799 140.446L110.273 139.817L110.923 139.762L111.386 139.222L111.761 138.55H112.433L113.314 138.903L113.347 137.669L114.328 138.109L114.427 137.118L115.485 137.569L115.375 136.357L116.124 136.324L116.444 135.751L117.215 135.696L118.108 135.729L118.262 134.98L118.824 134.638L119.342 134.263L119.772 133.789L119.243 132.533L120.257 132.555L120.444 131.905L121.172 131.652L120.874 130.715L121.128 130.153L121.866 129.866L122.615 129.569L122.152 128.61L123.067 128.368L122.858 127.585L123.221 127.067L123.243 126.406L123.872 125.976L123.85 125.304L124.478 124.852L124.401 124.169L124.07 123.431L124.423 122.891L124.996 122.373L124.279 121.601L125.172 121.127L125.018 120.477L124.941 119.838L125.723 119.287L125.503 118.637L125.216 117.998L125.778 117.381L124.941 116.752L125.007 116.135L125.062 115.518L124.72 114.923L125.326 114.24L125.58 113.579L124.456 113.116L125.04 112.388L124.489 111.87L124.015 111.353L124.445 110.603L124.037 110.085L124.368 109.314L124.544 108.575L124.169 108.035L122.979 107.87L123.651 106.867L122.737 106.625L122.858 105.842L122.053 105.589L121.998 104.895L121.546 104.443L121.359 103.804L120.455 103.738L120.588 102.801L119.673 102.812L119.761 101.853L119.056 101.688L118.692 101.148L117.744 101.357L117.811 100.222L117.381 99.7373L116.466 100.024L116.356 98.9329L115.43 99.3516L114.714 99.4618L114.593 98.1064L113.601 99.021L113.358 97.6986L112.653 97.8419L111.882 98.459L111.287 98.3488L110.67 98.3929L110.085 98.2276L109.479 98.3268L108.873 97.1035L108.223 97.1697L107.639 97.8199L107.066 98.2386L106.471 98.3598L105.666 97.4672L105.281 98.5913L104.465 97.9521L103.925 98.3709L103.506 99.0321L102.911 99.2084L102.393 99.55L101.809 99.7484L101.06 99.6492L100.652 100.189L99.8147 100.002L99.2527 100.31L98.6356 100.553L98.3931 101.28L97.9413 101.732L97.6548 102.349L97.1809 102.757L96.6409 103.076L95.9136 103.22L95.4618 103.672L95.4177 104.476L95.1092 105.027L94.8557 105.611H93.8418L93.4672 106.118L93.401 106.834L92.4974 106.989L92.6737 107.848L92.7949 108.631L91.715 108.741L91.2852 109.237L91.3072 109.953L91.5056 110.735L90.9766 111.176L90.5028 111.661L90.073 112.179L90.7452 113.083L90.1942 113.546L89.4999 113.986Z" fill="#DC0B00"/>
<path d="M96.7622 116.113L96.0569 116.554L95.55 117.072L95.6051 117.733L96.3324 118.483L96.0679 119.056L95.8916 119.651L95.9136 120.257L94.8887 120.841L95.4398 121.469L96.0459 122.075L95.9797 122.681L95.2855 123.364L95.6161 123.948L95.8806 124.533L96.4756 125.039L96.5638 125.635L96.3875 126.307L96.134 127.034L97.1038 127.343L96.9715 128.048L97.6768 128.401L97.5556 129.128L97.9083 129.624L97.6217 130.527L98.9001 130.406L98.1727 131.718H99.1756L99.5282 132.225L99.9249 132.698L100.443 133.04L101.302 132.952L101.512 133.668L101.666 134.561L102.239 134.847L102.989 134.759L103.528 135.068L103.903 135.872L104.851 134.958L105.215 135.982L105.898 135.795L106.504 135.971L107.11 136.313L107.749 136.093L108.366 135.696L108.961 135.542L109.601 135.806L110.262 135.938L110.978 136.181L111.375 135.266L112.113 135.509L112.697 135.266L113.336 135.123L113.458 133.977L114.361 134.351L114.571 133.514L115.011 133.095L115.629 132.908L116.235 132.698L116.675 132.258L117.546 132.291L117.8 131.652L117.601 130.616L118.02 130.186L118.637 129.91L119.761 129.988L119.849 129.271L119.739 128.456L120.654 128.29L120.059 127.244L120.621 126.858L121.315 126.516L121.238 125.8L121.249 125.139L121.568 124.61L121.657 124.004L121.976 123.464L122.979 123.089L122.858 122.406L123.089 121.811L123.122 121.182L122.637 120.477L122.792 119.882L123.497 119.309L122.825 118.659L123.254 118.042L123.398 117.414L122.516 116.841L123.475 116.135L122.726 115.595L122.803 114.956L122.086 114.471L121.855 113.92L122.439 113.127L121.601 112.752L121.723 112.069L121.921 111.33L121.293 110.934L121.381 110.195L120.555 109.942L120.202 109.457L119.673 109.093L120.246 107.914L119.056 108.08L119.43 106.911L119.067 106.36L118.384 106.151L117.976 105.655L117.524 105.17L116.477 105.611L116.246 104.796L115.618 104.652L114.956 104.641L114.571 103.881L113.976 103.649L113.171 104.267L112.576 104.189L112.003 103.991L111.43 103.517L110.813 103.187L110.207 103.969L109.534 103.286L109.039 104.267L108.311 103.649L107.639 103.572L107.121 104.057L106.515 104.2L105.777 104.057L105.303 104.553L105.148 105.644L103.991 104.807L103.694 105.545L102.977 105.6L102.724 106.338L102.14 106.603L101.875 107.253L101.754 108.013L101.115 108.234L100.178 108.19L100.564 109.358L99.4951 109.27L99.7486 110.228L98.5915 110.162L99.1315 111.264L98.4482 111.551L98.3491 112.19L97.6548 112.521L96.8062 112.807L96.9385 113.557L96.5528 114.074L96.2112 114.626L95.9908 115.221L96.7622 116.113Z" fill="#FFBE69"/>
<path d="M48.4611 43.7333L47.7338 44.4496L47.7448 45.0557L48.935 45.6177L48.6595 46.2569L48.3178 46.874L48.5052 47.5131L48.8027 48.1854L47.8109 48.6813L47.5354 49.2433L48.1415 50.0147L47.1717 50.3894L48.1195 51.3371L47.3811 51.7559L47.4032 52.4391L46.4995 52.7146L46.4003 53.3428L46.6207 54.1803L45.8714 54.4668L45.64 55.0509L45.0228 55.3705L44.4388 55.6901L44.6151 56.6378L43.6674 56.6047L43.8878 57.6847L43.2817 57.9602L43.2045 58.8418L42.2678 58.6985L42.1245 59.5691L41.4523 59.7234L40.8572 59.9879L40.185 60.0761L39.7773 60.6711L39.1601 60.8475L38.4218 60.7152L37.8598 60.9687L37.419 61.6299L36.6035 61.0568L36.2619 62.247L35.6227 62.3903L34.9615 62.3682L34.3223 62.4344L33.617 61.6519L32.9999 61.5748L32.3938 61.8282L31.7877 61.7731L31.2036 61.3434L30.5865 61.4315L29.8151 62.3793L29.2421 61.9935L28.5919 61.9384L28.1511 61.1891L27.578 60.9687L26.9829 60.8034L26.0462 61.4205L25.5613 60.9246L25.0103 60.594L24.3712 60.4287L24.0736 59.6904L23.2912 59.7234L22.9055 59.1614L22.608 58.5112L21.7925 58.5002L21.2966 58.1035L20.7235 57.7618L20.6464 56.9574L20.5252 56.23L20.1615 55.7341L19.6987 55.3154L18.7509 55.1942L19.0485 54.2574L18.6738 53.7615L18.1779 53.3207L18.5526 52.4612L17.9244 52.0644L17.0538 51.7228L16.9436 51.0837L16.5028 50.5327L16.4147 49.8825L17.4175 49.0339L16.1171 48.6262L17.131 47.8548L16.7563 47.2707L16.1061 46.6756L16.58 46.0254L16.7673 45.4083L16.3375 44.7471L16.8444 44.1741L17.3073 43.6231L17.1089 42.9618L17.4836 42.4219L17.8583 41.8929L17.693 41.2097L17.7701 40.5815V39.9093L18.5085 39.5677L18.4203 38.8403L18.817 38.3444L18.806 37.6171L19.7427 37.4738L19.346 36.438L20.1395 36.2396L20.5141 35.7547L21.1202 35.4682L21.3186 34.796L21.8035 34.3992L21.8806 33.5176L22.4978 33.2642L23.5006 33.5507L23.5336 32.5038L24.0516 32.1291L24.9442 32.4156L25.6715 32.4928L25.9691 31.6993L26.487 31.3246L27.3246 31.7765L27.6111 30.6965L28.4486 31.3467L29.0106 31.0932L29.5065 30.454L30.0686 30.0353L30.6747 29.6716L31.3469 29.9141L31.9971 30.2777L32.6252 30.0132L33.2313 30.5202L33.8705 30.3108L34.5537 29.881L35.0056 31.1042L35.5896 31.1924L36.1847 31.2695L36.8349 31.1924L37.5181 31.0932L38.2234 30.994L38.6202 31.6773L39.4907 31.2805L39.8213 32.0409L40.2952 32.4597H41.0225L41.276 33.2311L41.9813 33.2972L42.8409 33.2311L42.907 34.1458L43.1935 34.7519L43.469 35.3359L44.0641 35.6114L44.4718 36.0743L45.1 36.3498L45.8493 36.5922L45.5738 37.54L45.6069 38.2452L46.0587 38.675L46.5656 39.1048L46.764 39.6889L47.877 39.8983L47.4583 40.7468L48.2958 41.1325L48.4611 41.7607L48.1195 42.51L48.1415 43.1492L48.4611 43.7333Z" fill="#DC0B00"/>
<path d="M43.0943 47.7115L42.7307 48.4057L42.2348 49.0449L43.0392 49.651L42.907 50.2902L42.9731 50.9404L42.2237 51.4363L42.1135 52.0314L41.5735 52.4942L42.0805 53.3207L41.7939 53.8827L40.8132 54.0591L41.6066 55.2272L40.6258 55.3374L40.6589 56.1419L39.601 56.0537L39.9426 57.2108L38.8185 56.9243L38.543 57.5304L38.2675 58.1806L37.8488 58.7095L37.419 59.2385L36.3059 58.423L36.1627 59.6132L35.215 58.8197L34.8513 59.6683L34.2121 59.6352L33.5619 59.4369L33.066 60.5058L32.3938 59.8446L31.7877 59.6462L31.1596 60.0319L30.5975 59.6022L29.8812 60.087L29.2421 60.0209L28.8343 59.2165L28.2613 59.0291L27.7984 58.5883L27.0711 58.7206L26.2336 58.8969L26.2556 57.7287L25.8038 57.3541L25.4071 56.9022L24.4373 57.0675L23.9194 56.6818L23.6549 56.0868L23.1369 55.679L22.6741 55.2272L23.2361 54.1913L22.2223 54.026L22.2774 53.3207L22.5969 52.5603L21.5941 52.2407V51.5906L22.0459 50.8963L22.1672 50.3012L21.8035 49.7282L21.0982 49.122L21.8255 48.538L21.2415 47.8547L22.1672 47.3919L22.4316 46.8519L22.5308 46.2789L22.7402 45.7389L22.8394 45.1438L22.6741 44.3944L23.2141 43.9977L23.0267 43.1271L23.3463 42.5651L23.71 42.0361L24.4924 41.9039L25.374 41.959L25.2087 40.8239L26.1124 41.0002L26.1564 39.9423L26.9278 40.0084L27.6662 40.1076L27.8976 39.1048L28.68 39.3913L29.4294 39.8101L29.9694 39.5676L30.3882 38.4215L31.1265 39.4574L31.6885 38.9505L32.2946 39.3693L32.9228 38.7521L33.5619 38.7191L34.1791 38.7962L34.8182 38.8513L35.2701 39.5015L36.1406 38.9505L36.339 40.0635L36.9782 40.1297L37.6173 40.2509L38.4218 40.1848L38.3006 41.408L39.2263 41.2427L39.6891 41.6725L39.9646 42.2786L40.5817 42.5651L40.8352 43.1712L41.4633 43.5128L41.5405 44.2071L41.254 45.0446L41.4633 45.5956L42.1907 45.9703L42.8739 46.4331L43.0723 47.0503L43.0943 47.7115Z" fill="#870300"/>
<path d="M43.7114 48.7253L43.9869 49.3094L43.7776 49.9265L43.7004 50.5106L43.4249 51.0836L43.5572 51.6897L44.2184 52.4722L43.6012 52.946L43.491 53.5632L42.5764 53.8166L42.2458 54.2795L42.4441 55.095L42.1466 55.6239L42.1907 56.4615L41.3311 56.5386L40.9123 56.9684L40.2291 57.1006L39.612 57.2439L39.5899 58.2687L39.094 58.6544L38.5981 59.0732L37.8267 58.8749L37.463 59.6903L36.6255 59.0402L35.9974 58.952L35.5676 60.0099L34.8733 59.3267L34.2782 59.1173L33.7052 59.0402L33.0881 59.5581L32.4599 59.6903L31.7767 59.9218L31.1375 59.8556L30.7188 59.0953L29.9804 59.3046L29.5176 58.7977L28.9335 58.5773L28.4817 58.1475L27.6111 58.2798L27.2915 57.6516L27.4568 56.5717L26.7956 56.3953L26.1895 56.1198L25.8038 55.6349L25.3079 55.2272L25.8038 54.2574L24.6797 54.1362L24.1287 53.6623L24.9663 52.7367L24.834 52.1636L24.3161 51.6567L24.5144 51.0285L24.0406 50.4555L24.6026 49.8604L24.9112 49.3094L24.7018 48.6923L25.0765 48.1854L24.1177 47.2707L24.2279 46.6205L24.9112 46.2238L25.4291 45.805L25.1977 44.9344L25.7928 44.5597L25.9691 43.8985L27.1923 44.163L26.8287 42.9288L27.8425 43.1492L27.8315 42.1133L28.3384 41.6945L29.2751 42.0472L29.9143 41.9921L30.0906 40.868L30.9612 41.43L31.4791 41.0443L31.975 40.4493L32.5922 40.306L33.2975 41.0333L33.9036 41.2096L34.5097 40.1738L35.1268 40.4382L35.6778 40.9452L36.4051 40.3942L36.868 41.1325L37.4741 41.2207L38.2455 40.9452L38.6422 41.5843L39.3254 41.6394L39.4797 42.5651L40.4715 42.2125L40.2952 43.4137L40.736 43.7773L41.6286 43.7443L42.2568 44.0308L42.4331 44.681L42.8519 45.1548L42.9621 45.794L43.7886 46.1026L43.5241 46.896L44.1522 47.3589L44.2404 47.998L43.7114 48.7253Z" fill="#FFBE69"/>
<path d="M72.1763 40.1407L72.2755 40.7358L71.2947 41.5843L72.5951 41.9039L72 42.7194L72.5951 43.1712V43.8434L73.2673 44.2181L73.631 44.714L73.8404 45.2871L74.0608 45.8601L74.193 46.4993L73.9836 47.414L74.3583 47.9429L75.2289 48.0421L75.7358 48.4278L75.5705 49.4527L76.7497 49.1441L77.0472 49.7282L77.5542 50.0808L77.5321 51.1498L78.59 50.742L79.0639 51.1498L79.4055 51.7889L80.21 51.6016L80.3863 52.6595L81.3561 52.0204L81.5434 53.2326L82.4912 52.4281L82.943 53.0232L83.4389 53.6183L84.1111 53.5081L84.7613 53.4199L85.3454 53.7064L85.9515 54.0701L86.5906 54.026L87.2298 53.2546L87.869 54.2244L88.4971 54.0921L89.1693 54.3015L89.7093 53.5632L90.3154 53.3758L90.8334 52.8469L91.4395 52.7587L92.255 53.3538L92.817 53.0342L93.357 52.6705L93.9851 52.5383L94.3047 51.7669L95.1643 52.0424L95.7373 51.7669L95.9577 50.9514L96.5308 50.6869L97.2801 50.6428L97.4234 49.8274L97.9523 49.4857L98.316 48.9788L98.7789 48.5711L99.4952 48.3837L99.947 47.9319L99.9249 47.1274L100.366 46.6866L101.027 46.367L101.302 45.794L101.369 45.1218L101.336 44.4165L101.699 43.9206L102.658 43.623L101.809 42.6643L102.537 42.2455L102.603 41.6284L102.449 40.9672L102.724 40.3942L102.922 39.8101L102.592 39.1599L102.823 38.5648L103.033 37.9587L103.462 37.3306L103.143 36.7245L103.242 36.0853L102.944 35.4902L102.658 34.9172L102.272 34.3662L102.371 33.727L102.57 33.0217L102.151 32.4927L102.316 31.7654L102.052 31.1924L101.92 30.5532L101.38 30.1124L100.729 29.7708L101.159 28.7459L99.7707 28.9443L100.311 27.7651L99.407 27.688L99.2858 26.9496L98.7237 26.619L97.8091 26.6741L97.3573 26.2774L97.6107 24.9991L96.652 25.2085L96.3654 24.5473L95.9467 24.0183L95.1312 24.1616L94.5251 23.9742L93.9741 23.7208L93.2908 23.7538L92.8721 23.1697L92.3652 22.7289L91.759 22.5636L91.1199 22.5526L90.4366 22.8281L89.9407 22.1118L89.2685 22.4645L88.7065 21.8804L88.0563 22.3983L87.4502 21.4286L86.811 21.5718L86.227 22.3543L85.5768 22.0016L84.9156 21.8253L84.2874 21.9575L83.8136 22.7179L83.0311 22.1559L82.6675 23.1367L82.1606 23.5114L81.5765 23.6657L80.6949 23.1808L80.1549 23.5114L79.4496 23.5334L78.8325 23.7538L78.546 24.4922L78.4358 25.4178L77.2456 24.8668L77.4219 26.0791L76.9811 26.4978L75.8681 26.2333L76.1987 27.4125L75.5485 27.6329L74.733 27.7651L75.0416 28.79L73.8514 28.7018L74.1269 29.6275L73.0139 29.6936L73.7632 30.8177L73.1351 31.1814L72.6282 31.6332V32.3054L71.989 32.7462L72.2535 33.4846L72.0772 34.0686L71.4711 34.5755L71.6364 35.2478L71.9229 35.92L71.3278 36.482L71.7466 37.1212L71.7025 37.7383L70.887 38.3775L71.7245 38.9726L72.1653 39.5346L72.1763 40.1407Z" fill="#DC0B00"/>
<path d="M77.8296 42.4659L78.4357 42.9949L78.4247 43.6341L78.6892 44.1961L78.9206 44.7691L79.7802 45.0446L79.119 46.0585L79.4496 46.5985L79.7251 47.1936L80.5626 47.3368L80.9042 47.8548L81.4002 48.2184L82.0614 48.3947L82.2156 49.1441L82.3479 50.0257L83.0532 50.1359L83.7805 50.1249L84.2433 50.5657L84.9707 50.4224L85.3343 51.26L86.1278 50.742L86.6237 51.293L87.2849 51.0947L87.8359 51.811L88.4971 50.8302L89.1252 52.0644L89.7313 51.5355L90.3815 51.6897L90.8995 51.0506L91.4615 50.7751L92.0235 50.5547L92.7178 50.6979L93.2688 50.4004L93.941 50.3453L94.2275 49.607L94.8226 49.4196L95.583 49.3755L95.3626 48.1854L96.5969 48.5931L97.203 48.2625L96.7401 47.0833L96.9495 46.4993L97.225 45.9924L98.2278 45.8711L98.3821 45.254L98.6025 44.6699L99.3629 44.2732L98.9441 43.4908L99.4621 42.9729L98.9662 42.2676L99.7045 41.7166L99.2858 41.0664L99.3078 40.4603L99.1425 39.8542L99.396 39.204L98.4703 38.7522L99.396 37.9036L98.4593 37.5399L98.2719 36.9669L97.8421 36.5151L97.765 35.898L97.3352 35.4571L96.9385 35.0163L97.4895 33.8262L96.4867 33.8482L96.5087 32.9666L95.4287 33.2201L95.594 32.063L94.8777 31.9638L93.9631 32.2613L93.7757 31.3687L93.4451 30.5863L92.4864 31.2695L92.0015 30.8067L91.2742 31.1924L90.8664 30.2777L90.2052 30.5091L89.5771 30.7736L88.993 30.7516L88.3759 30.0353L87.7918 30.5532H87.1857L86.5135 30.2997L85.8633 30.2667L85.3784 30.8177L84.7392 30.8618L84.3205 31.4458L83.9127 31.9528L83.0421 31.6662L82.5132 31.9968L82.2377 32.6801L81.7969 33.0878L80.9704 33.1099L80.4855 33.5397L80.0667 34.0135L80.1549 34.8621L79.659 35.2698L79.4165 35.8429L79.1631 36.3939L78.2925 36.7134L78.3366 37.4187L78.5459 38.135L78.039 38.653L77.7966 39.2591L78.2484 39.9423L77.6974 40.5374L78.6121 41.1545L78.3917 41.7606L77.8296 42.4659Z" fill="#870300"/>
<path d="M76.6285 43.7443L77.499 44.2181L77.1354 44.9565L78.0721 45.2871L77.9839 45.9703L78.3255 46.4662L78.8214 46.874L78.8435 47.5572L79.1851 48.0641L79.7251 48.3947L79.8243 49.1661L80.3092 49.5518L81.2679 49.3094L81.0806 50.6649L82.2267 49.9486L82.6895 50.3122L83.2736 50.4224L83.7805 50.7089L84.3976 50.6869L84.7833 51.5795L85.4004 51.6126L85.9625 52.2848L86.6237 51.5355L87.2408 51.9983H87.8689L88.5301 52.1195L89.0481 51.4914L89.6983 51.5465L90.095 50.7751L90.5909 50.4555L91.2301 50.4334L92.0015 50.6098L92.1117 49.618L92.6076 49.3204L93.2798 49.2323L93.379 48.4719L94.5912 48.8245L94.1724 47.6564L95.032 47.5792L95.8806 47.4029L95.9467 46.7087L96.2883 46.1797L95.8585 45.3311L96.0128 44.7691L96.7842 44.3614L96.3434 43.6561L97.1589 43.1602L97.3903 42.5431L97.5446 41.9039L97.3683 41.2647L96.9936 40.6696L96.7511 40.0856L96.9054 39.4023L96.5087 38.8734L95.9357 38.4436L96.0569 37.7052L95.4398 37.3636L95.3406 36.6914L94.6683 36.4379L94.2716 35.9971L94.0733 35.358L93.7757 34.7519L93.2357 34.4213L92.3211 34.6968L91.759 34.5204L91.5717 33.5947L90.7782 33.9253L90.3815 33.2972L89.6762 33.6058L89.2244 32.9446L88.5412 33.4074L88.0453 32.614L87.4281 32.7242L86.822 32.8895L86.1829 32.3936L85.6319 32.9556L84.9927 32.8233L84.5078 33.4074L83.9568 33.6058L83.1854 33.2421L82.8768 34.0466L81.9071 33.5066L81.323 33.7711L80.8161 34.1788L80.4194 34.7078L80.0998 35.2808L80.2541 36.2836L78.9427 35.92L79.2072 36.9228L78.4688 37.1432L77.9949 37.595L78.028 38.3113L77.3117 38.675L78.1492 39.6338L77.3778 40.0195L77.6092 40.6807L77.2676 41.2317L76.7717 41.8157L77.1133 42.4439L77.8186 42.9949L76.6285 43.7443Z" fill="#FFBE69"/>
<path d="M93.1035 49.7943L92.4313 50.5106L92.5415 51.1167L93.401 51.6567L92.9933 52.3069L92.5305 52.9571L93.1035 53.5411L93.4341 54.1693L93.5112 54.7974L93.0594 55.4035L93.4451 56.0537L93.0925 56.6488L92.5084 57.2108L92.0235 57.7729L92.4974 58.4451L92.8831 59.1394L92.4092 59.6793L92.9162 60.4177L92.5966 60.9907L92.3431 61.5748L91.6158 62.0156L91.6599 62.6658L91.5717 63.2939L91.4946 63.9221L90.6791 64.2747L90.5468 64.8808L89.9848 65.2996L90.0399 65.9828L90.5689 66.9195L89.9517 67.3052L88.9489 67.4816V68.1648L89.3677 69.1125L89.0812 69.6746L88.7506 70.2035L87.4612 70.1043L87.9791 71.1953L86.8 71.1182L87.2408 72.2092L86.2821 72.2533L86.1278 72.9145L85.687 73.3442L84.9596 73.5206L85.169 74.5454L84.4307 74.6997L84.3976 75.5372L83.4609 75.4711L83.2295 76.1103L82.2377 75.923L82.436 77.1021L81.4883 76.9148L81.3451 77.7192L81.1467 78.4906L80.199 78.2482L80.1218 79.218L78.8986 78.5017L78.579 79.1188L78.2154 79.7249L77.3888 79.5155L77.2015 80.4191L76.5293 80.4742L75.9342 80.6506L75.3501 80.86L75.0967 81.7856L74.193 81.2567L73.9285 82.2044L73.08 81.7416L72.7935 82.7664L72.0441 82.4799L71.6364 83.2513L70.7658 82.4799L70.358 83.3064L69.8511 83.8574L69.1789 83.7472L68.5066 83.5929L67.9777 84.0999L67.3275 84.0227L66.5781 83.2403L66.0492 83.8795L65.4431 83.9786L64.8259 84.0007L64.2419 84.4084L63.6137 84.3864L62.9635 83.604L62.3685 84.2541L61.7513 83.7142L61.1232 84.7831L60.5061 84.3754L59.8889 84.3864L59.2498 84.5407L58.7428 83.3836L58.0486 84.0448L57.4094 84.188L56.7372 84.4305L56.2854 83.3946L55.514 84.0999L55.0621 83.2403L54.5111 82.9427L53.894 82.8987L53.1887 83.1081L52.6157 82.8656L52.252 82.006L51.4475 82.4689L51.0949 81.6644L50.1802 82.3146L49.7174 81.7967L49.3758 81.0583L48.4721 81.5542L47.9542 81.1795L47.3591 80.9922L47.1717 80.0334L46.6979 79.6257L45.9265 79.7359L45.1881 79.769L44.8796 79.0857L44.1633 79.0527L43.8327 78.4466L43.0502 78.4686L42.5874 78.0388L41.9482 77.8294V76.8597L41.6727 76.2315L40.9454 76.1434L40.4275 75.7907L40.2511 75.0744L40.1189 74.3581L39.2483 74.3471V73.5206L38.8736 73.0577L37.7606 73.1789L37.4961 72.5949L37.8047 71.5921L36.5263 71.7684L36.6365 70.9308L36.0084 70.6113L36.0635 69.8399L35.5896 69.4101L34.9394 69.0795L35.2149 68.2199L34.5978 67.8452L34.2562 67.3273L34.0468 66.7432L33.4187 66.3465L33.2203 65.7514L33.0881 65.1343L32.8787 64.5392L33.4187 63.7017L33.077 63.1727L32.1183 62.8201L32.8677 61.9715L31.964 61.5638L32.5371 60.8034L31.7877 60.3295L31.6885 59.7124L31.6224 59.0953L31.8648 58.4341L32.0301 57.7949L31.8318 57.1998L32.0963 56.5717L31.4461 55.9986L32.0632 55.3595L31.3359 54.7534L30.9281 54.1252L30.9392 53.4971L31.3359 52.891L31.6665 52.2959L32.1403 51.7338L32.4048 51.1498L31.4351 50.4004L32.0191 49.8604L31.7216 49.1772L32.0522 48.6152L32.4269 48.0642L32.1734 47.3699L32.3277 46.7638L32.3718 46.1246L33.3085 45.772L33.033 45.0336L32.9779 44.3504L33.1872 43.7553L33.9917 43.4137L34.2342 42.8627L33.8705 42.0031L34.7631 41.7496L34.5758 40.9562L35.4464 40.7248L34.9945 39.755L36.3721 39.8652L36.4161 39.1709L36.5484 38.5318L36.9231 38.0359L37.2096 37.4849L37.5732 36.989L38.0692 36.5922L38.3667 36.0412L38.6091 35.4461L39.5238 35.4351L39.8875 34.9392L39.8654 34.0686L40.3724 33.705L40.6809 33.1319L41.1327 32.7132L41.5515 32.2393L42.2127 32.052L42.5433 31.4899L42.8188 30.8287L43.3257 30.454L44.5269 31.0491L45.0669 30.7736L45.3424 30.0904L45.4636 29.1316L46.0918 28.9663L46.8522 29.0325L47.5244 28.9994L48.0313 28.6468L48.5493 28.3161L49.1443 28.1619L49.7174 27.9415L50.2133 27.5668L50.5329 26.7293L51.0729 26.3987L51.8883 26.8174L52.3843 26.3656L52.9022 25.9358L53.6185 26.1672L54.1695 25.8807L54.6323 25.1754L55.3487 25.506L55.8556 24.9109L56.6821 25.9027L57.178 25.1864L57.8723 25.6272L58.4453 25.4068L58.9963 24.7677L59.5694 24.3048L60.2526 25.0652L60.8367 24.5032L61.4648 24.7016L62.0819 24.5914L62.6991 24.966L63.3162 25.0322L63.9554 24.2718L64.5174 25.3187L65.1786 24.7567L65.8398 24.2828L66.4569 24.4812L67.041 24.7787L67.603 25.2305L68.2422 25.1644L68.8042 25.506L69.5756 24.8558L69.9062 26.1562L70.7878 25.1975L71.2286 25.9248L71.7906 26.2113L72.551 25.8807L72.7935 27.0488L73.5318 26.8284L74.0057 27.2803L74.6999 27.2252L75.1848 27.6439L75.6366 28.1068L76.2097 28.3272L77.0362 28.0517L77.5321 28.4374L77.9398 28.9774L78.3917 29.4071L78.8435 29.8369L79.4716 29.9912L79.9565 30.3659L80.761 30.2777L80.8161 31.2585H81.5765L81.885 31.8536L82.8658 31.6332L82.8218 32.636L83.6923 32.5919L83.6703 33.5066L84.0119 34.0356L84.5519 34.3552L85.4335 34.3662L85.2903 35.3359L86.3372 35.2368L86.9653 35.5233L86.7008 36.5371L86.7559 37.2534L87.0975 37.7493L87.7036 38.0689L87.7477 38.7742L88.8718 38.7852L89.4448 39.1599L89.1583 40.0525L89.4448 40.5925L89.2575 41.386H90.646L90.8554 41.97L90.1501 42.9619L90.3264 43.5459L90.6901 44.0528L91.3403 44.4716L90.9325 45.254L91.6819 45.6618L91.2191 46.4222L92.3321 46.7528L91.5497 47.5903L92.3652 48.0311L92.6517 48.6041L91.8803 49.3645L93.1035 49.7943Z" fill="#DC0B00"/>
<g opacity="0.5">
<path d="M92.7839 51.6787L93.1145 52.1857L92.6958 52.8358L93.5002 53.4199L92.817 54.0591L92.9713 54.6762L92.5084 55.2823L93.3019 55.9325L92.9933 56.5386L92.3872 57.1006L92.255 57.6957L92.4203 58.3349L92.8721 59.0402L92.2219 59.5471L92.4203 60.2193L91.6599 60.6822L91.8913 61.3654L91.5607 61.9054L91.3623 62.4894L91.197 63.0735L91.7811 63.9331L91.5166 64.5061L90.8554 64.9139L90.9656 65.6302L90.4807 66.104L90.5689 66.8314L90.3264 67.4044L89.5991 67.735L89.2795 68.275L89.1363 68.9031L89.1803 69.6525L88.6183 70.0492L87.902 70.3247L87.1526 70.5451L86.9653 71.1512L87.0865 72.0218L86.4804 72.3304L86.5025 73.1459L85.2792 72.9255L85.7972 74.2038L85.158 74.4683L84.4417 74.6336L84.3205 75.394L83.3728 75.2948L83.4499 76.2866L82.4801 76.1323L82.0173 76.5291L82.0724 77.5649L81.1577 77.4107L80.7169 77.8515L80.3643 78.4135L79.4827 78.2372L79.5708 79.4714L79.108 79.9122L78.0611 79.3943L77.7084 80.0114L77.0803 80.1436L76.8489 81.0363L76.3419 81.411L75.7909 81.7305L75.1187 81.7636L74.1489 81.0914L73.9175 82.1383L73.2784 82.2154L72.4629 81.7636L72.2204 82.9648L71.5702 82.9868L71.0523 83.4497L70.2809 82.9758L69.5976 82.7885L68.9915 82.8766L68.4846 83.4276L67.8124 83.2293L67.2393 83.4827L66.6332 83.604L65.9941 83.3946L65.432 83.8795L64.837 84.1109L64.1647 83.4056L63.6027 84.155L62.9746 83.7913L62.3574 83.7582L61.7513 84.155L61.1342 84.5296L60.5281 84.0007L59.8669 84.706L59.2387 84.6398L58.6547 84.199L57.9935 84.5076L57.4866 83.626L56.9025 83.4166L56.1311 84.2541L55.7564 82.9207L54.9519 83.7803L54.3128 83.7252L53.7838 83.2954L53.1557 83.2403L52.5606 83.075L51.8443 83.2403L51.3373 82.7774L50.7643 82.535L50.3676 81.8518L49.6623 81.9399L48.935 82.0611L48.4721 81.5432L47.833 81.433L47.2489 81.2016L46.8081 80.6836L46.1138 80.6506L45.8714 79.8461L45.3204 79.5486L44.8575 79.1298L44.4498 78.6339L44.0641 78.1159L43.6453 77.6751L42.5984 78.0278L42.0143 77.7523L41.7609 77.0801L41.0225 76.9809L40.9895 76.0882L40.714 75.4821L39.9646 75.3719L39.7993 74.6777L39.645 73.9834L39.072 73.6859L38.2675 73.5646L37.6173 73.3002L37.6614 72.4626L37.1765 72.0659L37.2647 71.2394L36.7688 70.8427L36.361 70.3798L36.2619 69.7186L35.4023 69.5313L35.3362 68.848L34.8623 68.4072L34.124 68.0987L33.8815 67.5146L33.8705 66.8314L33.4958 66.3134L34.0799 65.3988L33.044 65.1453L33.4297 64.3518L32.7575 63.9221L32.2505 63.4372L32.1734 62.798L31.942 62.2139L31.8428 61.5968L32.2946 60.8475L32.2175 60.2414L31.964 59.6683L31.2367 59.1504L31.6444 58.4561L31.0604 57.8831L32.2285 57.1447L32.0191 56.5496L31.0383 55.9656L31.0053 55.3374L32.1844 54.6982L31.8428 54.0811L31.1375 53.4309L31.6555 52.8358L32.2285 52.2518L31.3579 51.5465V50.9073L32.2616 50.4114L31.424 49.629L31.4791 48.9898L32.526 48.5711L32.1954 47.2376V48.7915L32.6362 49.2433L33.077 49.6841L33.4407 50.191L34.0027 50.5326L34.6309 50.8302L34.5427 51.7118L35.1598 51.9983L35.6117 52.4391L36.317 52.6375L36.4382 53.3648L37.2426 53.464L37.3639 54.2023L37.9039 54.544L38.5651 54.7754L38.5871 55.6129L38.9838 56.0868L39.1491 56.8031L40.3173 56.5055L40.9674 56.7149L40.5928 58.0043L41.6397 57.8059L41.816 58.5222L42.4221 58.7757L43.1384 58.8969L42.918 60.0981L43.5131 60.3626L44.4828 60.1642L44.4388 61.1891L45.0008 61.4866L45.3314 62.0707L46.1359 62.0597L46.5105 62.5776L47.0064 62.9633L47.5795 63.2278L48.2297 63.3821L48.3399 64.3298L49.4529 63.7678L49.8166 64.3408L50.1031 65.0571L51.0618 64.6604L51.3814 65.3437L51.69 66.0489L52.274 66.2914L52.6708 66.9085L53.2438 67.173L54.1144 66.7763L54.5993 67.2171L54.985 67.9003L55.7123 67.7791L56.1862 68.286L57.0237 67.8122L57.5968 68.0436L57.9604 68.9693L58.7098 68.6387L59.3049 68.804L59.922 68.9142L60.5722 68.804L61.1342 69.1676L61.7293 69.355L62.3023 69.7737L62.9525 69.6084L63.6247 69.0464L64.2088 69.4872L64.8149 69.7517L65.4431 69.6856L66.0822 70.2696L66.6773 69.3109L67.3495 70.1264L67.9446 69.7627L68.4956 69.1125L69.0907 68.9362L69.7299 69.0354L70.325 68.8811L70.9641 68.9142L71.6143 68.9693L72.1323 68.5064L72.9257 68.9803L73.1792 67.7791L73.7743 67.6358L74.4134 67.5807L75.306 68.1317L75.5375 67.1179L76.5072 67.702L76.5844 66.4677L77.6092 67.0738L77.7084 65.9608L78.3145 65.7734L78.7223 65.2665L79.3504 65.1233L79.648 64.462L80.6508 64.8257L81.1577 64.4731L81.5544 63.9661L81.874 63.36L82.8107 63.5364L82.5793 62.2911L83.6593 62.5997L84.1111 62.1699L84.7392 61.9274L85.0148 61.2993L84.9376 60.3185L86.1057 60.6271L86.4363 60.065L86.5906 59.3487L86.9433 58.8308L87.1526 58.1916L87.9902 58.1035L87.8028 57.1116L88.3649 56.7921L89.1583 56.6488L89.004 55.7121L89.7313 55.5137L90.635 55.4256L90.5689 54.5991L91.1199 54.2354L91.4505 53.6954L91.175 52.7256L92.5855 52.9791L92.4092 52.0865L92.7839 51.6787Z" fill="#870300"/>
</g>
<path d="M79.5378 65.6522L79.4276 66.2803L79.1851 66.8864L80.3202 67.5146L79.9786 68.1317L80.0447 68.7929L79.3614 69.3109L79.5818 69.9941L78.5129 70.3137L79.2402 71.2173L78.7113 71.6802L78.5019 72.2643L78.1492 72.7712L77.4219 73.0467L77.0252 73.4875L77.1574 74.347L76.1766 74.325L76.2538 75.1956L75.9011 75.7135L75.8681 76.5951L74.6338 76.1323L74.0718 76.3858L74.3583 77.7963L73.4987 77.6641L73.2012 78.3694L72.5951 78.5788L71.7906 78.3914L71.6033 79.4273L70.4792 78.4465L70.0715 79.0306L69.796 80.0555L68.8372 79.1408L68.3303 79.5375L67.9226 80.4081L67.1291 79.7028L66.6112 80.2318L66.0271 80.5073L65.4431 80.7828L64.7598 80.2538L64.1868 80.7497L63.5586 80.7277L62.9415 80.4632L62.3464 80.1436L61.7293 80.2869L61.1232 80.353L60.5501 79.9783L59.9881 79.7138L59.3269 79.9673L58.6326 80.2428L58.0265 80.1216L57.3323 80.2097L56.8143 79.7689L56.2192 79.5816L55.5801 79.4604L55.2936 78.6339L54.6103 78.6008L54.3348 77.8625L53.2659 78.3584L53.332 77.2123L52.8912 76.7935L51.8112 77.08L51.6128 76.3858L51.7671 75.405L50.4006 75.7466L51.0288 74.5013L50.1251 74.3801L50.4667 73.4765L49.9268 73.1018L49.8166 72.4957L48.8688 72.1981L49.1554 71.4598L48.1966 71.052L48.395 70.3578L49.1884 69.6525L48.8909 69.0684L48.8137 68.4733L49.2105 67.9003L49.3427 67.3383L48.8468 66.633L49.5631 66.1922L49.0231 65.3987L49.7064 65.002L49.0782 64.0653L49.3317 63.4702L49.6843 62.9302H50.8745L50.3676 61.8392L50.7423 61.3213L51.8002 61.3764L51.9434 60.6932L52.3622 60.2303L52.4283 59.3928L53.6626 59.8556L54.1254 59.4809L54.6434 59.1724L54.6323 58.0814L55.1172 57.6626L55.8556 57.7067L56.5388 57.6736L56.7482 56.7039L57.7731 57.4643L58.1037 56.6818L58.4784 55.9104L59.2387 56.1859L59.9771 56.5386L60.462 55.9766L60.9579 55.3815L61.6852 55.8333L62.2252 55.3043L62.8974 55.668L63.4484 55.0509L64.0766 54.9517L64.7047 55.0949L65.3329 54.9186L65.9279 55.7451L66.5781 55.106L67.1622 55.5358L67.8344 55.1831L68.3083 56.1198L69.1458 55.0729L69.4654 56.3953L70.1597 56.1529L70.8649 55.9876L71.5151 56.0206L71.8788 56.8031L72.7384 56.4174L72.7494 57.7728L73.62 57.4312L73.8073 58.2908L75.0305 57.5634L75.1077 58.5332L75.8019 58.6544L75.7799 59.6022L76.8268 59.4148L77.2346 59.9107L77.3999 60.583L77.466 61.2993L78.2594 61.5086L78.4908 62.1037L79.108 62.4894L78.9647 63.2498L79.5818 63.6906L79.5929 64.3628L78.7994 65.1783L79.5378 65.6522Z" fill="#FFBE69"/>
<path d="M64.5284 66.8093C65.0268 67.8632 65.3968 68.9732 65.6304 70.1153C65.8332 71.2368 65.9584 72.3709 66.0051 73.5095L66.3137 76.9258C66.3908 78.0278 66.49 79.2069 66.5561 80.353H66.4128C66.1373 79.251 65.8949 78.149 65.6304 77.047L64.9141 73.741C64.6238 72.6367 64.4102 71.5136 64.2749 70.3798C64.1599 69.2232 64.1932 68.0567 64.3741 66.9085L64.5284 66.8093Z" fill="#141B30"/>
<path d="M62.9635 68.5285L57.0127 65.0351C56.617 64.8068 56.286 64.4816 56.0509 64.09C55.8158 63.6983 55.6843 63.2533 55.6688 62.7968C55.6534 62.3402 55.7545 61.8873 55.9626 61.4807C56.1708 61.0741 56.4791 60.7272 56.8584 60.4727C58.777 59.294 60.9269 58.5423 63.1619 58.2687C65.3016 57.8902 67.491 57.8902 69.6307 58.2687C70.0887 58.3683 70.5129 58.5854 70.8616 58.8986C71.2103 59.2118 71.4714 59.6104 71.6193 60.0552C71.7672 60.5 71.7968 60.9756 71.7051 61.4353C71.6134 61.8949 71.4036 62.3228 71.0964 62.6768L66.3467 67.9113C65.9424 68.3914 65.3835 68.7156 64.7661 68.8282C64.1487 68.9408 63.5113 68.8349 62.9635 68.5285Z" fill="#141B30"/>
<path d="M53.2989 55.084C53.6185 57.288 52.7589 59.1724 51.3594 59.3928C49.9598 59.6132 48.5603 58.0153 48.2407 55.8443C47.9211 53.6734 48.7807 51.7559 50.1692 51.5465C51.5577 51.3371 52.9683 52.913 53.2989 55.084Z" fill="#141B30"/>
<path d="M75.9452 51.6567C76.2758 53.8607 75.4052 55.7451 74.0167 55.9655C72.6282 56.1859 71.2176 54.588 70.887 52.4171C70.5564 50.2461 71.427 48.3286 72.8265 48.1192C74.2261 47.9098 75.6256 49.4857 75.9452 51.6567Z" fill="#141B30"/>
</g>
</g>
<defs>
<clipPath id="clip0_2_697">
<rect x="0.5" width="120" height="120" rx="60" fill="white"/>
</clipPath>
<clipPath id="clip1_2_697">
<rect width="110.278" height="128.571" fill="white" transform="translate(15.5 21.4286)"/>
</clipPath>
</defs>
</svg>
