<svg width="121" height="120" viewBox="0 0 121 120" fill="none" xmlns="http://www.w3.org/2000/svg">
<rect x="0.5" width="120" height="120" rx="60" fill="url(#paint0_linear_1101_14747)"/>
<path d="M79 51.5979V39.3732C79 27.9476 71.5 24.0924 61 24.0924C50.5 24.0924 43 27.9476 43 39.3732V51.5979" stroke="url(#paint1_linear_1101_14747)" stroke-width="13"/>
<path d="M92.1666 70.5C92.1666 87.5 89.3333 96 60.9999 96C32.6666 96 29.8333 87.5 29.8333 70.5C29.8333 53.5 32.6666 45 60.9999 45C89.3333 45 92.1666 53.5 92.1666 70.5Z" fill="url(#paint2_linear_1101_14747)"/>
<path d="M69.4999 70.5C69.4999 75.1944 68.7271 79 60.9999 79C53.2726 79 52.4999 75.1944 52.4999 70.5C52.4999 65.8056 53.2726 62 60.9999 62C68.7271 62 69.4999 65.8056 69.4999 70.5Z" fill="url(#paint3_linear_1101_14747)"/>
<circle cx="95" cy="94" r="26" transform="rotate(-90 95 94)" fill="url(#paint4_linear_1101_14747)"/>
<path fill-rule="evenodd" clip-rule="evenodd" d="M89.558 87.9167C89.558 86.9046 89.922 85.4613 90.7799 84.3461C91.5369 83.362 92.763 82.5 94.9747 82.5C96.8059 82.5 98.2684 83.5292 99.1753 85.1617C100.146 86.9093 100.14 88.7346 99.6511 89.7132C99.0325 90.9505 98.3485 91.3588 96.9893 92.1455C93.9505 93.9042 92.808 95.5 91.9658 97.5216C91.2873 99.1833 92.0845 101.08 93.7462 101.759C95.408 102.437 96.4296 101.759 97.1413 100.917C97.3041 100.724 97.4662 100.506 97.6398 100.273C98.2254 99.4869 98.9407 98.5262 100.245 97.7712L100.375 97.696C100.459 97.6478 100.546 97.5978 100.638 97.5458C102.129 96.6941 104.586 95.2916 105.808 92.25C107.105 89.0224 106.878 84.3461 104.725 81.4167C102.528 78.4279 99.6511 76 94.9747 76C90.2982 76 87.176 77.7966 85.2247 80.3333C83.3741 82.739 82.8014 85.75 83.058 87.9167C83.3146 90.0833 84.5131 91.1667 86.308 91.1667C88.4747 91.1667 89.558 89.7116 89.558 87.9167ZM94.9743 111.75C96.7693 111.75 98.2243 110.295 98.2243 108.5C98.2243 106.705 96.7693 105.25 94.9743 105.25C93.1794 105.25 91.7243 106.705 91.7243 108.5C91.7243 110.295 93.1794 111.75 94.9743 111.75Z" fill="url(#paint5_linear_1101_14747)"/>
<defs>
<linearGradient id="paint0_linear_1101_14747" x1="110.5" y1="120" x2="-12.0376" y2="31.0468" gradientUnits="userSpaceOnUse">
<stop stop-color="#FFC38B"/>
<stop offset="1" stop-color="#FFF9C1"/>
</linearGradient>
<linearGradient id="paint1_linear_1101_14747" x1="49.75" y1="18.9351" x2="69.877" y2="60.3313" gradientUnits="userSpaceOnUse">
<stop stop-color="#FFC960"/>
<stop offset="1" stop-color="#FF1F1F"/>
</linearGradient>
<linearGradient id="paint2_linear_1101_14747" x1="41.5208" y1="35.4375" x2="80.3935" y2="110.098" gradientUnits="userSpaceOnUse">
<stop stop-color="#FFC960"/>
<stop offset="1" stop-color="#FF1F1F"/>
</linearGradient>
<linearGradient id="paint3_linear_1101_14747" x1="55.6874" y1="58.8125" x2="70.0154" y2="81.3282" gradientUnits="userSpaceOnUse">
<stop stop-color="#FF4228"/>
<stop offset="1" stop-color="#DB0000"/>
</linearGradient>
<linearGradient id="paint4_linear_1101_14747" x1="95" y1="68" x2="95" y2="120" gradientUnits="userSpaceOnUse">
<stop stop-color="#227CFF"/>
<stop offset="1" stop-color="#0057D5"/>
</linearGradient>
<linearGradient id="paint5_linear_1101_14747" x1="94.8028" y1="70.4978" x2="115.41" y2="92.0583" gradientUnits="userSpaceOnUse">
<stop stop-color="#B0E7FF"/>
<stop offset="1" stop-color="#3CADFF"/>
</linearGradient>
</defs>
</svg>
