<svg width="53" height="52" viewBox="0 0 53 52" fill="none" xmlns="http://www.w3.org/2000/svg">
<rect x="0.5" width="52" height="52" rx="20" fill="#FFE9EB"/>
<path d="M10.192 33.7509L13.2376 30.7053H17.2983L12.2224 35.7813C11.6617 36.342 10.7527 36.342 10.192 35.7813C9.63131 35.2206 9.63131 34.3116 10.192 33.7509Z" fill="url(#paint0_linear_12_4272)"/>
<path d="M38.2794 11.7428L34.4509 7.91426C33.3937 6.85705 31.6796 6.85705 30.6224 7.91426L13.0042 25.5324L20.6613 33.1894L38.2794 15.5713C39.3366 14.5141 39.3366 12.8 38.2794 11.7428Z" fill="url(#paint1_linear_12_4272)"/>
<path fill-rule="evenodd" clip-rule="evenodd" d="M38.0531 15.7984L30.396 8.14136L28.3324 10.205L35.9894 17.8621L38.0531 15.7984ZM20.6678 33.1838L13.0107 25.5267L11.5122 28.2463C10.9306 29.3019 11.1169 30.6148 11.9691 31.467L14.5904 34.0883C15.402 34.8999 16.6372 35.1115 17.6727 34.6162L20.6678 33.1838Z" fill="url(#paint2_linear_12_4272)"/>
<rect x="8.5" y="37.4731" width="35.1933" height="4.06077" rx="2.03038" fill="url(#paint3_linear_12_4272)"/>
<rect x="17.9147" y="26.2971" width="16.2431" height="2.70718" rx="1.35359" transform="rotate(-45 17.9147 26.2971)" fill="url(#paint4_linear_12_4272)"/>
<defs>
<linearGradient id="paint0_linear_12_4272" x1="11.7707" y1="30.3983" x2="12.4615" y2="37.8449" gradientUnits="userSpaceOnUse">
<stop stop-color="#FF2525"/>
<stop offset="1" stop-color="#C00000"/>
</linearGradient>
<linearGradient id="paint1_linear_12_4272" x1="18.1089" y1="30.6371" x2="18.753" y2="6.25711" gradientUnits="userSpaceOnUse">
<stop stop-color="#FF7D7D"/>
<stop offset="1" stop-color="#FF2F2F"/>
</linearGradient>
<linearGradient id="paint2_linear_12_4272" x1="11.1761" y1="0.501344" x2="53.1925" y2="39.638" gradientUnits="userSpaceOnUse">
<stop stop-color="#8CA1AC"/>
<stop offset="1" stop-color="#1E3E45"/>
</linearGradient>
<linearGradient id="paint3_linear_12_4272" x1="31.9622" y1="41.5339" x2="31.7506" y2="36.6014" gradientUnits="userSpaceOnUse">
<stop stop-color="#FF7D7D"/>
<stop offset="1" stop-color="#FF2F2F"/>
</linearGradient>
<linearGradient id="paint4_linear_12_4272" x1="23.1024" y1="26.1607" x2="23.1712" y2="29.4973" gradientUnits="userSpaceOnUse">
<stop stop-color="#FF2525"/>
<stop offset="1" stop-color="#C00000"/>
</linearGradient>
</defs>
</svg>
