<svg width="25" height="24" viewBox="0 0 25 24" fill="none" xmlns="http://www.w3.org/2000/svg">
<path fill-rule="evenodd" clip-rule="evenodd" d="M11.7246 3.57216C12.5925 2.81998 13.8876 2.84219 14.7292 3.62368L22.3504 10.7005C22.8499 11.1644 22.5217 12.0001 21.8401 12.0001H21.0651C20.675 12.0001 20.3501 12.2991 20.3177 12.6879L19.7969 18.937C19.6997 20.1031 18.7249 21.0001 17.5547 21.0001H17.0072C16.6232 21.0001 16.3438 20.6341 16.3438 20.2501V16.5001C16.3438 14.8433 15.0006 13.5001 13.3438 13.5001H12.5938C10.9369 13.5001 9.59375 14.8433 9.59375 16.5001V20.2501C9.59375 20.6341 9.31425 21.0001 8.93032 21.0001H8.19529C7.02509 21.0001 6.05024 20.1031 5.95306 18.937L5.4323 12.6879C5.39991 12.2991 5.07496 12.0001 4.68489 12.0001H4.01054C3.31626 12.0001 2.99468 11.1381 3.51934 10.6834L11.7246 3.57216Z" fill="#4F4F4F"/>
<path d="M11.0938 16.875C11.0938 15.8395 11.9332 15 12.9688 15C14.0043 15 14.8438 15.8395 14.8438 16.875V19.5C14.8438 20.3284 14.1722 21 13.3438 21H12.5937C11.7653 21 11.0938 20.3284 11.0938 19.5V16.875Z" fill="#4F4F4F"/>
</svg>
