<svg width="52" height="52" viewBox="0 0 52 52" fill="none" xmlns="http://www.w3.org/2000/svg">
<rect width="52" height="52" rx="20" fill="#E4F8FF"/>
<path fill-rule="evenodd" clip-rule="evenodd" d="M31.6169 23.474C30.6509 23.474 29.7861 24.0733 29.4469 24.9778C29.0304 26.0884 29.5196 27.3341 30.5805 27.8645L35.4268 30.2877C36.898 31.0233 38.0608 32.2565 38.7087 33.7683C40.6753 38.3571 37.3093 43.4618 32.3168 43.4618H16.6493C15.888 43.4618 15.2708 42.8447 15.2708 42.0834C15.2708 41.3221 15.888 40.7049 16.6493 40.7049H32.3168C35.3301 40.7049 37.3616 37.6239 36.1747 34.8543C35.7836 33.9419 35.0818 33.1976 34.1939 32.7536L29.3475 30.3304C27.0247 29.169 25.9536 26.4414 26.8655 24.0098C27.6082 22.0292 29.5016 20.717 31.6169 20.717H37.3264C38.0877 20.717 38.7049 21.3342 38.7049 22.0955C38.7049 22.8568 38.0877 23.474 37.3264 23.474H31.6169Z" fill="url(#paint0_linear_1641_7458)"/>
<path d="M25.4124 31.154C25.4124 37.0125 20.3909 43.708 17.0432 43.708C13.6954 43.708 8.67386 37.0125 8.67386 31.154C8.67386 26.5318 12.4209 22.7847 17.0432 22.7847C21.6654 22.7847 25.4124 26.5318 25.4124 31.154Z" fill="url(#paint1_linear_1641_7458)"/>
<circle cx="17.0432" cy="30.3171" r="3.34772" fill="url(#paint2_linear_1641_7458)"/>
<path d="M43.07 14.9077C43.07 19.0432 39.6238 23.7693 37.3264 23.7693C35.0289 23.7693 31.5827 19.0432 31.5827 14.9077C31.5827 11.645 34.1543 9 37.3264 9C40.4985 9 43.07 11.645 43.07 14.9077Z" fill="url(#paint3_linear_1641_7458)"/>
<ellipse cx="37.3264" cy="14.317" rx="2.29745" ry="2.3631" fill="url(#paint4_linear_1641_7458)"/>
<defs>
<linearGradient id="paint0_linear_1641_7458" x1="11.4248" y1="42.2446" x2="15.6454" y2="18.8721" gradientUnits="userSpaceOnUse">
<stop stop-color="#1C92FF"/>
<stop offset="1" stop-color="#24CAFF"/>
</linearGradient>
<linearGradient id="paint1_linear_1641_7458" x1="11.8123" y1="19.6462" x2="5.0183" y2="42.9308" gradientUnits="userSpaceOnUse">
<stop stop-color="#FFA776"/>
<stop offset="1" stop-color="#FF0000"/>
</linearGradient>
<linearGradient id="paint2_linear_1641_7458" x1="15.8338" y1="26.6318" x2="16.8396" y2="34.7633" gradientUnits="userSpaceOnUse">
<stop stop-color="#FF2525"/>
<stop offset="1" stop-color="#C00000"/>
</linearGradient>
<linearGradient id="paint3_linear_1641_7458" x1="33.7366" y1="6.7846" x2="28.8261" y2="23.1464" gradientUnits="userSpaceOnUse">
<stop stop-color="#FFA776"/>
<stop offset="1" stop-color="#FF0000"/>
</linearGradient>
<linearGradient id="paint4_linear_1641_7458" x1="36.4965" y1="11.7156" x2="37.226" y2="17.4505" gradientUnits="userSpaceOnUse">
<stop stop-color="#FF2525"/>
<stop offset="1" stop-color="#C00000"/>
</linearGradient>
</defs>
</svg>
