<svg width="14" height="17" viewBox="0 0 14 17" fill="none" xmlns="http://www.w3.org/2000/svg">
<path fill-rule="evenodd" clip-rule="evenodd" d="M4.25 5.16188C4.25 4.21061 4.54751 3.74554 4.90491 3.47733C5.31758 3.16765 5.99855 2.97837 7 2.97837C8.00145 2.97837 8.68242 3.16765 9.09509 3.47733C9.45249 3.74554 9.75 4.21061 9.75 5.16188V6.51428C8.99382 6.39418 8.08699 6.33413 7 6.33413C5.91301 6.33413 5.00617 6.39418 4.25 6.51428V5.16188ZM2.25 7.13534V5.16188C2.25 3.73281 2.73374 2.60613 3.70447 1.87767C4.61992 1.19068 5.81395 0.978373 7 0.978373C8.18605 0.978373 9.38008 1.19068 10.2955 1.87767C11.2663 2.60613 11.75 3.73281 11.75 5.16188V7.13535C13.2722 7.97662 13.4931 9.48038 13.4931 11.6466C13.4931 15.1883 12.9028 16.9591 7 16.9591C1.09722 16.9591 0.506943 15.1883 0.506943 11.6466C0.506943 9.48037 0.727773 7.97661 2.25 7.13534ZM8.77083 11.6466C8.77083 12.6246 8.60985 13.4175 7 13.4175C5.39015 13.4175 5.22916 12.6246 5.22916 11.6466C5.22916 10.6686 5.39015 9.87579 7 9.87579C8.60985 9.87579 8.77083 10.6686 8.77083 11.6466Z" fill="#828282"/>
</svg>
