<svg width="62" height="32" viewBox="0 0 62 32" fill="none" xmlns="http://www.w3.org/2000/svg">
<path d="M20.7429 13.4425L18.7794 10.6705C20.8749 9.4 21.7824 7.783 21.5349 5.8525C21.4689 5.3575 21.2709 4.9615 20.9409 4.681C20.6274 4.417 20.2149 4.285 19.7199 4.285C19.1754 4.285 18.7464 4.45 18.3999 4.7635C18.0699 5.077 17.9049 5.506 17.9049 6.0175C17.9049 6.5455 18.0864 6.958 18.4329 7.2385C17.8224 8.575 16.3869 9.3835 14.1429 9.6805V7.1725H15.2154V4.615H10.0014V7.1725H10.9914V13.4425H10.0179V16H15.2154V13.4425H14.1429V12.3205C14.8194 12.1885 15.4959 12.0235 16.1559 11.8255L18.8949 16H21.9309V13.4425H20.7429ZM23.8019 6.925C24.1979 7.255 24.7094 7.42 25.3529 7.42C26.0294 7.42 26.5574 7.255 26.9534 6.925C27.3659 6.5785 27.5639 6.0835 27.5639 5.4565C27.5639 4.8625 27.3494 4.4005 26.9369 4.0705C26.5409 3.757 26.0129 3.6085 25.3529 3.6085C24.6929 3.6085 24.1649 3.7735 23.7524 4.1035C23.3399 4.4335 23.1419 4.879 23.1419 5.4565C23.1419 6.067 23.3564 6.562 23.8019 6.925ZM22.4819 7.7995V10.357H23.7524V16H27.0524V7.7995H22.4819ZM28.4995 4.615V7.1725H29.4895V13.4425H28.516V16H34.489C36.3865 16 37.888 15.4225 39.01 14.284C40.0825 13.2115 40.6105 11.8585 40.6105 10.192C40.6105 8.641 40.0825 7.3375 39.01 6.298C37.8715 5.176 36.37 4.615 34.489 4.615H28.4995ZM32.6245 13.426V7.189H34.489C35.3305 7.189 36.0235 7.453 36.5845 7.9645C37.195 8.542 37.5085 9.3175 37.5085 10.3075C37.5085 11.3305 37.195 12.1225 36.5845 12.6835C36.04 13.1785 35.347 13.426 34.489 13.426H32.6245ZM45.7764 8.74C44.9844 8.542 44.5884 8.2615 44.5884 7.915C44.5884 7.2385 45.2979 6.892 46.7334 6.892C47.3274 6.892 47.9214 7.0075 48.5319 7.2385C48.3504 7.651 48.4164 8.113 48.6969 8.5915C49.0104 9.136 49.4889 9.4 50.1324 9.4C51.1554 9.4 51.7329 8.905 51.8649 7.9315C51.9969 6.9085 51.6009 6.0505 50.6934 5.3575C49.7364 4.648 48.4164 4.285 46.7499 4.285C45.0174 4.285 43.7139 4.6315 42.8064 5.308C41.9979 5.935 41.5854 6.7765 41.5854 7.849C41.5854 8.8885 41.9814 9.697 42.7734 10.291C43.3674 10.7365 44.2419 11.0995 45.3969 11.3635C45.6939 11.4295 46.1559 11.512 46.7829 11.6275C47.3604 11.743 47.7564 11.8255 48.0039 11.875C48.7959 12.073 49.1919 12.3535 49.1919 12.7165C49.1919 13.03 48.9774 13.261 48.5484 13.393C48.1524 13.525 47.4759 13.591 46.5189 13.591C45.6939 13.591 45.0999 13.5085 44.7204 13.327C44.9349 12.8155 44.8854 12.304 44.5719 11.7925C44.2419 11.248 43.7469 10.9675 43.0704 10.9675C42.6249 10.9675 42.2289 11.0995 41.9154 11.3635C41.5689 11.6605 41.3874 12.04 41.3379 12.5185C41.2224 13.5745 41.5854 14.4325 42.4269 15.076C43.3344 15.802 44.7039 16.165 46.5189 16.165C48.3669 16.165 49.7859 15.835 50.7924 15.1585C51.7329 14.515 52.2114 13.657 52.2114 12.5515C52.2114 11.5945 51.8154 10.8355 51.0234 10.2745C50.4294 9.862 49.5549 9.5155 48.3999 9.268C48.1194 9.202 47.6409 9.1195 46.9974 9.004C46.4364 8.8885 46.0239 8.806 45.7764 8.74Z" fill="white"/>
<path d="M10.2248 19.7152C9.21716 18.7805 7.90285 18.3132 6.26726 18.3132C4.61707 18.3132 3.30276 18.7805 2.29512 19.7152C1.28749 20.6352 0.790968 21.8619 0.790968 23.3952C0.790968 24.987 1.28749 26.2575 2.29512 27.2213C3.30276 28.1998 4.61707 28.6817 6.26726 28.6817C7.90285 28.6817 9.21716 28.1998 10.2248 27.2213C11.2324 26.2575 11.729 24.987 11.729 23.3952C11.729 21.8619 11.2324 20.6352 10.2248 19.7152ZM8.23873 25.5273C7.74221 26.0385 7.08505 26.2867 6.26726 26.2867C5.44947 26.2867 4.79231 26.0385 4.2958 25.5273C3.78468 25.0162 3.53642 24.3299 3.53642 23.4975C3.53642 22.6651 3.78468 21.9787 4.2958 21.4676C4.79231 20.9565 5.44947 20.7082 6.26726 20.7082C7.08505 20.7082 7.74221 20.9565 8.23873 21.4676C8.73524 21.9787 8.9835 22.6651 8.9835 23.4975C8.9835 24.3299 8.73524 25.0162 8.23873 25.5273ZM23.664 18.4593H19.1953V20.7228H20.1737V24.2276L15.0771 18.4593H12.3901V20.7228H13.2663V26.2721H12.4047V28.5356H16.7419V26.2721H15.8657V23.0594L20.9477 28.5356H22.7878V20.7228H23.664V18.4593ZM31.5948 24.6657V26.3013H28.1776V20.7228H29.5503V18.4593H24.4975V20.7228H25.4613V26.2721H24.4975V28.5356H33.8729V24.6657H31.5948ZM35.2574 20.5037C35.6079 20.7958 36.0606 20.9419 36.6301 20.9419C37.2289 20.9419 37.6962 20.7958 38.0467 20.5037C38.4117 20.1971 38.587 19.759 38.587 19.204C38.587 18.6783 38.3971 18.2694 38.032 17.9774C37.6816 17.6999 37.2143 17.5685 36.6301 17.5685C36.046 17.5685 35.5787 17.7145 35.2136 18.0066C34.8485 18.2986 34.6733 18.6929 34.6733 19.204C34.6733 19.7444 34.8631 20.1825 35.2574 20.5037ZM34.0891 21.2777V23.5413H35.2136V28.5356H38.1343V21.2777H34.0891ZM50.6889 18.4593H46.2202V20.7228H47.1987V24.2276L42.1021 18.4593H39.415V20.7228H40.2912V26.2721H39.4296V28.5356H43.7669V26.2721H42.8907V23.0594L47.9727 28.5356H49.8127V20.7228H50.6889V18.4593ZM58.6374 25.3083C58.2431 25.9654 57.5859 26.2867 56.6513 26.2867C55.9358 26.2867 55.337 26.0823 54.8551 25.688C54.3732 25.2937 54.0811 24.7534 53.9789 24.067C54.6068 24.4029 55.3224 24.6073 56.1256 24.6949C56.9288 24.7826 57.7028 24.7241 58.4329 24.5343C59.2069 24.3445 59.8203 24.0086 60.273 23.5559C60.7841 23.0447 61.0324 22.4168 61.0324 21.672C61.0324 20.6644 60.6381 19.8466 59.8641 19.2186C59.1047 18.6199 58.1263 18.3132 56.9434 18.3132C55.191 18.3132 53.789 18.7951 52.7376 19.759C51.7008 20.7082 51.1896 21.9787 51.1896 23.5559C51.1896 25.0746 51.7008 26.3159 52.723 27.2651C53.7306 28.2144 55.0449 28.6817 56.6513 28.6817C57.878 28.6817 58.9441 28.3458 59.8349 27.674C60.6673 27.0461 61.1784 26.2575 61.339 25.3083H58.6374ZM54.2564 22.1393C54.7675 21.1609 55.6291 20.6644 56.812 20.6644C57.7904 20.6644 58.2869 20.9565 58.2869 21.5552C58.2869 22.1539 57.8342 22.4898 56.9288 22.5628C56.1256 22.6359 55.2348 22.4898 54.2564 22.1393Z" fill="white"/>
</svg>
