<svg width="53" height="52" viewBox="0 0 53 52" fill="none" xmlns="http://www.w3.org/2000/svg">
<rect x="0.5" width="52" height="52" rx="20" fill="#DDF9FF"/>
<path d="M18.4615 9.34615C18.4615 8.60269 19.0642 8 19.8077 8H33.2692C34.0127 8 34.6154 8.60269 34.6154 9.34615V13.3846C34.6154 14.1281 34.0127 14.7308 33.2692 14.7308H19.8077C19.0642 14.7308 18.4615 14.1281 18.4615 13.3846V9.34615Z" fill="url(#paint0_linear_12_3262)"/>
<rect x="15.7692" y="16.0769" width="21.5385" height="26.9231" rx="4.03846" fill="url(#paint1_linear_12_3262)"/>
<rect x="21.1538" y="14.7307" width="10.7692" height="1.34615" fill="url(#paint2_linear_12_3262)"/>
<circle cx="26.5385" cy="29.5384" r="6.73077" fill="white"/>
<path fill-rule="evenodd" clip-rule="evenodd" d="M25.8654 25.5C25.4936 25.5 25.1923 25.8013 25.1923 26.1731V28.1923L23.1731 28.1923C22.8013 28.1923 22.5 28.4937 22.5 28.8654L22.5 30.2115C22.5 30.5833 22.8013 30.8846 23.1731 30.8846H25.1923V32.9038C25.1923 33.2756 25.4936 33.5769 25.8654 33.5769H27.2115C27.5833 33.5769 27.8846 33.2756 27.8846 32.9038V30.8846H29.9038C30.2756 30.8846 30.5769 30.5833 30.5769 30.2115V28.8654C30.5769 28.4937 30.2756 28.1923 29.9038 28.1923L27.8846 28.1923V26.1731C27.8846 25.8013 27.5833 25.5 27.2115 25.5H25.8654Z" fill="url(#paint3_linear_12_3262)"/>
<defs>
<linearGradient id="paint0_linear_12_3262" x1="31.3846" y1="6.47028" x2="26.1852" y2="18.5433" gradientUnits="userSpaceOnUse">
<stop stop-color="#1E78FF"/>
<stop offset="1" stop-color="#002EB5"/>
</linearGradient>
<linearGradient id="paint1_linear_12_3262" x1="18.9103" y1="13.8333" x2="43.317" y2="33.6476" gradientUnits="userSpaceOnUse">
<stop stop-color="#A0F9FF"/>
<stop offset="1" stop-color="#18ACFF"/>
</linearGradient>
<linearGradient id="paint2_linear_12_3262" x1="22.7244" y1="14.6185" x2="23.027" y2="17.0752" gradientUnits="userSpaceOnUse">
<stop stop-color="#A0F9FF"/>
<stop offset="1" stop-color="#18ACFF"/>
</linearGradient>
<linearGradient id="paint3_linear_12_3262" x1="27.8846" y1="33.5769" x2="24.6738" y2="24.942" gradientUnits="userSpaceOnUse">
<stop stop-color="#FF7D7D"/>
<stop offset="1" stop-color="#FF2F2F"/>
</linearGradient>
</defs>
</svg>
