<svg width="52" height="52" viewBox="0 0 52 52" fill="none" xmlns="http://www.w3.org/2000/svg">
<rect width="52" height="52" rx="20" fill="#DAE2FF"/>
<rect x="21.3502" y="9.96631" width="24.9746" height="28.5424" rx="5.11051" transform="rotate(15 21.3502 9.96631)" fill="url(#paint0_linear_12_3398)"/>
<rect x="7" y="11.6211" width="26.8302" height="30.6631" rx="5.11051" transform="rotate(-7.75647 7 11.6211)" fill="url(#paint1_linear_12_3398)"/>
<rect x="12.6946" y="25.0288" width="19.1644" height="12.7763" rx="2.55526" transform="rotate(-7.75647 12.6946 25.0288)" fill="url(#paint2_linear_12_3398)"/>
<path fill-rule="evenodd" clip-rule="evenodd" d="M13.8471 14.5568C12.4488 14.7472 11.4696 16.0352 11.6601 17.4335L11.8325 18.6995C12.023 20.0978 13.311 21.0769 14.7093 20.8865L15.9752 20.714C17.3735 20.5236 18.3527 19.2356 18.1622 17.8373L17.9898 16.5714C17.7993 15.173 16.5114 14.1939 15.1131 14.3843L13.8471 14.5568ZM15.7438 28.4826C15.6486 27.7834 16.1382 27.1394 16.8373 27.0442L23.167 26.1821C23.8662 26.0868 24.5102 26.5764 24.6054 27.2756C24.7006 27.9747 24.2111 28.6187 23.5119 28.7139L17.1822 29.5761C16.483 29.6713 15.8391 29.1817 15.7438 28.4826ZM16.4336 33.5461C16.3383 32.847 16.8279 32.203 17.5271 32.1078L27.6546 30.7283C28.3537 30.6331 28.9977 31.1226 29.093 31.8218C29.1882 32.521 28.6986 33.1649 27.9994 33.2602L17.8719 34.6396C17.1728 34.7349 16.5288 34.2453 16.4336 33.5461Z" fill="url(#paint3_linear_12_3398)"/>
<defs>
<linearGradient id="paint0_linear_12_3398" x1="33.8375" y1="9.96631" x2="33.8375" y2="38.5087" gradientUnits="userSpaceOnUse">
<stop stop-color="#227CFF"/>
<stop offset="1" stop-color="#0057D5"/>
</linearGradient>
<linearGradient id="paint1_linear_12_3398" x1="10.9127" y1="9.06584" x2="39.1166" y2="34.1094" gradientUnits="userSpaceOnUse">
<stop stop-color="#A77DFF"/>
<stop offset="1" stop-color="#2391E0"/>
</linearGradient>
<linearGradient id="paint2_linear_12_3398" x1="18.8948" y1="24.2622" x2="20.8707" y2="39.2449" gradientUnits="userSpaceOnUse">
<stop stop-color="#E1F6FF"/>
<stop offset="1" stop-color="#CEEAFF"/>
</linearGradient>
<linearGradient id="paint3_linear_12_3398" x1="20.37" y1="11.238" x2="31.5355" y2="26.4683" gradientUnits="userSpaceOnUse">
<stop stop-color="#B0E7FF"/>
<stop offset="1" stop-color="#3CADFF"/>
</linearGradient>
</defs>
</svg>
