<svg width="15" height="19" viewBox="0 0 15 19" fill="none" xmlns="http://www.w3.org/2000/svg">
<path fill-rule="evenodd" clip-rule="evenodd" d="M13.1985 10.5318C13.0959 11.0998 13.3404 11.6638 13.7461 12.0743C13.8362 12.1656 13.9029 12.2523 13.942 12.3333C14.1342 12.732 14.1926 13.1306 14.1872 13.481C14.1759 14.2009 13.4844 14.625 12.7644 14.625H7.33169L7.31251 14.625L7.29332 14.625H1.86057C1.14065 14.625 0.44911 14.2009 0.437847 13.481C0.432365 13.1306 0.490829 12.732 0.683036 12.3333C0.722092 12.2523 0.78876 12.1656 0.87894 12.0743C1.28464 11.6638 1.52906 11.0998 1.42656 10.5318C1.27306 9.68133 1.2355 8.74011 1.2355 7.75C1.2355 3.95304 1.78795 0.875 7.31251 0.875C12.8371 0.875 13.3895 3.95304 13.3895 7.75C13.3895 8.74011 13.3519 9.68133 13.1985 10.5318ZM6.375 15.875C5.68464 15.875 5.125 16.4346 5.125 17.125C5.125 17.8154 5.68464 18.375 6.375 18.375H7.625C8.31536 18.375 8.875 17.8154 8.875 17.125C8.875 16.4346 8.31536 15.875 7.625 15.875H6.375Z" fill="#FF7917"/>
</svg>
