<svg width="17" height="22" viewBox="0 0 17 22" fill="none" xmlns="http://www.w3.org/2000/svg">
<path fill-rule="evenodd" clip-rule="evenodd" d="M15.8131 11.8382C15.6901 12.5198 15.9834 13.1967 16.4703 13.6893C16.5785 13.7988 16.6585 13.9028 16.7054 14C16.936 14.4784 17.0062 14.9568 16.9996 15.3773C16.9861 16.2411 16.1562 16.75 15.2923 16.75H2.20769C1.34378 16.75 0.513932 16.2411 0.500417 15.3773C0.493838 14.9568 0.563994 14.4784 0.794643 14C0.841512 13.9028 0.921516 13.7987 1.02974 13.6892C1.51659 13.1966 1.80989 12.5198 1.68688 11.8382C1.50268 10.8176 1.4576 9.68814 1.4576 8.5C1.4576 3.94365 2.12055 0.25 8.75001 0.25C15.3795 0.25 16.0424 3.94365 16.0424 8.5C16.0424 9.68814 15.9973 10.8176 15.8131 11.8382ZM7.625 18.25C6.79657 18.25 6.125 18.9216 6.125 19.75C6.125 20.5784 6.79657 21.25 7.625 21.25H9.125C9.95343 21.25 10.625 20.5784 10.625 19.75C10.625 18.9216 9.95343 18.25 9.125 18.25H7.625Z" fill="#4F4F4F"/>
</svg>
