<svg width="65" height="62" viewBox="0 0 65 62" fill="none" xmlns="http://www.w3.org/2000/svg">
<rect x="0.75" y="0.122559" width="63.5" height="61.5" rx="30.75" fill="#FFF4E6"/>
<path opacity="0.6" d="M17.75 25.8726C17.0999 27.4534 16.75 29.1324 16.75 30.8726C16.75 32.6127 17.0999 34.2917 17.75 35.8726" stroke="#FF7917" stroke-width="3" stroke-linecap="round"/>
<path fill-rule="evenodd" clip-rule="evenodd" d="M41.6427 33.1321C41.4915 33.9699 41.852 34.8019 42.4504 35.4074C42.5834 35.542 42.6818 35.6699 42.7394 35.7894C43.0229 36.3774 43.1091 36.9654 43.101 37.4822C43.0844 38.544 42.0644 39.1696 41.0025 39.1696H24.9193C23.8575 39.1696 22.8374 38.544 22.8208 37.4822C22.8127 36.9654 22.899 36.3774 23.1825 35.7894C23.2401 35.6699 23.3384 35.542 23.4715 35.4074C24.0699 34.8019 24.4304 33.9699 24.2792 33.1321C24.0528 31.8776 23.9974 30.4893 23.9974 29.0288C23.9974 23.4283 24.8122 18.8882 32.9609 18.8882C41.1097 18.8882 41.9245 23.4283 41.9245 29.0288C41.9245 30.4893 41.8691 31.8776 41.6427 33.1321ZM31.5781 41.0132C30.5599 41.0132 29.7344 41.8387 29.7344 42.8569C29.7344 43.8752 30.5598 44.7007 31.5781 44.7007H33.4219C34.4402 44.7007 35.2656 43.8752 35.2656 42.8569C35.2656 41.8387 34.4402 41.0132 33.4219 41.0132H31.5781Z" fill="#FF7917"/>
<path opacity="0.6" d="M47.25 25.8726C47.9001 27.4534 48.25 29.1324 48.25 30.8726C48.25 32.6127 47.9001 34.2917 47.25 35.8726" stroke="#FF7917" stroke-width="3" stroke-linecap="round"/>
</svg>
