<svg width="28" height="28" viewBox="0 0 28 28" fill="none" xmlns="http://www.w3.org/2000/svg">
<rect x="2" y="2" width="24" height="24" rx="12" fill="white"/>
<path d="M9.36712 7.23842C6.61 8.40455 5.86875 12.147 10.931 17.2092L13.0327 15.1075C10.6462 12.721 11.2768 12.0905 11.9073 11.46C12.5378 10.8295 12.4571 10.5476 12.2073 9.78543C11.9575 9.02329 11.9781 9.00269 11.6082 7.98991C11.2383 6.97713 10.017 6.96354 9.36712 7.23842Z" fill="#FF7917"/>
<path d="M20.9018 18.7731C19.7357 21.5302 15.9932 22.2715 10.931 17.2092L13.0327 15.1075C15.4192 17.494 16.0497 16.8635 16.6803 16.2329C17.3108 15.6024 17.5927 15.6831 18.3548 15.9329C19.1169 16.1827 19.1375 16.1621 20.1503 16.532C21.1631 16.9019 21.1767 18.1232 20.9018 18.7731Z" fill="#FF7917"/>
<rect x="2" y="2" width="24" height="24" rx="12" stroke="white" stroke-width="4"/>
</svg>
