<svg width="54" height="54" viewBox="0 0 54 54" fill="none" xmlns="http://www.w3.org/2000/svg">
<path fill-rule="evenodd" clip-rule="evenodd" d="M26.6094 14.6656C26.859 14.5597 27.1408 14.5597 27.3904 14.6656L37.3107 18.8736C37.338 18.8852 37.3645 18.8977 37.39 18.9111L26.9851 24.8567C26.9729 24.8498 26.9606 24.843 26.9482 24.8364L16.3359 19.122C16.4287 19.0199 16.5465 18.9341 16.6891 18.8736L26.6094 14.6656ZM27.9999 26.5804C28 26.586 28 26.5916 28 26.5973V38.5001C28.1496 38.5001 28.3032 38.4659 28.4509 38.3914L37.2605 33.942C37.9341 33.6018 38.3589 32.9115 38.3589 32.1568V21.8107C38.3589 21.4285 38.152 21.1149 37.8606 20.9457L27.9999 26.5804ZM26 26.5973L26 38.5C25.8504 38.5001 25.6968 38.4659 25.5491 38.3914L16.7395 33.942C16.0659 33.6018 15.6411 32.9114 15.6411 32.1568V21.8107C15.6411 21.5519 15.736 21.3246 15.8877 21.1522L26 26.5973Z" fill="#E0E0E0"/>
<rect x="1" y="1" width="52" height="52" rx="20" stroke="#E0E0E0" stroke-width="2" stroke-linecap="round" stroke-dasharray="6 6"/>
</svg>
