<svg width="52" height="52" viewBox="0 0 52 52" fill="none" xmlns="http://www.w3.org/2000/svg">
<rect width="52" height="52" rx="20" fill="#CFFFE9"/>
<path fill-rule="evenodd" clip-rule="evenodd" d="M14.6614 9C14.031 9 13.5217 9.51098 13.5217 10.1413C13.5217 12.0323 15.0519 13.5652 16.9429 13.5652H19.5843C20.4382 13.5652 21.1304 14.2574 21.1304 15.1113V16.6087C21.1304 17.4491 21.8117 18.1304 22.6522 18.1304C23.4926 18.1304 24.1739 17.4491 24.1739 16.6087V15.087C24.1739 14.2465 24.8552 13.5652 25.6957 13.5652C26.5361 13.5652 27.2174 14.2465 27.2174 15.087V16.6087C27.2174 17.4491 27.8987 18.1304 28.7391 18.1304C29.5796 18.1304 30.2609 17.4491 30.2609 16.6087V15.1113C30.2609 14.2574 30.9531 13.5652 31.807 13.5652H34.4484C36.3394 13.5652 37.8696 12.0323 37.8696 10.1413C37.8696 9.51098 37.3603 9 36.7299 9H25.6957H14.6614ZM19.4823 37.913C18.9323 37.913 18.4238 38.2051 18.1467 38.6801L16.3998 41.6748C15.7986 42.7055 16.5421 44 17.7353 44H33.656C34.8493 44 35.5927 42.7055 34.9915 41.6748L33.2446 38.6801C32.9675 38.2051 32.459 37.913 31.9091 37.913H19.4823Z" fill="url(#paint0_linear_1641_7493)"/>
<path d="M14.5931 20.614C14.9093 18.3186 16.871 16.6087 19.1881 16.6087H32.2033C34.5203 16.6087 36.482 18.3186 36.7982 20.614L38.665 34.1633C39.049 36.9504 36.8834 39.4348 34.07 39.4348H17.3213C14.5079 39.4348 12.3423 36.9504 12.7263 34.1633L14.5931 20.614Z" fill="url(#paint1_linear_1641_7493)"/>
<circle cx="25.6957" cy="28.0218" r="8.36957" fill="white"/>
<path d="M24.9376 21.9207C25.1033 21.0921 26.288 21.0921 26.4537 21.9207L27.7146 28.2254C27.8793 29.0489 27.6215 29.9002 27.0277 30.494C26.292 31.2297 25.0992 31.2297 24.3636 30.494C23.7697 29.9002 23.5119 29.0488 23.6766 28.2253L24.9376 21.9207Z" fill="url(#paint2_linear_1641_7493)"/>
<defs>
<linearGradient id="paint0_linear_1641_7493" x1="17.0725" y1="6.08333" x2="47.6221" y2="27.6497" gradientUnits="userSpaceOnUse">
<stop stop-color="#61C18E"/>
<stop offset="1" stop-color="#03828A"/>
</linearGradient>
<linearGradient id="paint1_linear_1641_7493" x1="15.9946" y1="14.7065" x2="36.7346" y2="39.9629" gradientUnits="userSpaceOnUse">
<stop stop-color="#DDE994"/>
<stop offset="1" stop-color="#00BFCB"/>
</linearGradient>
<linearGradient id="paint2_linear_1641_7493" x1="26.4564" y1="31.8261" x2="18.1728" y2="24.4003" gradientUnits="userSpaceOnUse">
<stop stop-color="#FF7D7D"/>
<stop offset="1" stop-color="#FF2F2F"/>
</linearGradient>
</defs>
</svg>
