<svg width="19" height="18" viewBox="0 0 19 18" fill="none" xmlns="http://www.w3.org/2000/svg">
<path d="M8.01346 1.17087C8.5207 -0.390293 10.7293 -0.39029 11.2365 1.17088L12.288 4.40709C12.5149 5.10527 13.1655 5.57797 13.8996 5.57797H17.3023C18.9438 5.57797 19.6262 7.6785 18.2983 8.64336L15.5454 10.6434C14.9515 11.0749 14.703 11.8398 14.9299 12.538L15.9814 15.7742C16.4886 17.3353 14.7018 18.6335 13.3738 17.6687L10.621 15.6686C10.0271 15.2371 9.22291 15.2371 8.62901 15.6686L5.87617 17.6687C4.54818 18.6336 2.7614 17.3353 3.26864 15.7742L4.32013 12.538C4.54698 11.8398 4.29847 11.0749 3.70458 10.6434L0.951735 8.64335C-0.376248 7.6785 0.306247 5.57797 1.94773 5.57797H5.35043C6.08452 5.57797 6.73512 5.10527 6.96197 4.40709L8.01346 1.17087Z" fill="#4F4F4F"/>
</svg>
